<?xml version="1.0" encoding="utf-8" standalone="no"?>
<!DOCTYPE svg PUBLIC "-//W3C//DTD SVG 1.1//EN"
  "http://www.w3.org/Graphics/SVG/1.1/DTD/svg11.dtd">
<svg height="179.28pt" version="1.1" viewBox="0 0 180 179.28" width="180pt" xmlns="http://www.w3.org/2000/svg" xmlns:xlink="http://www.w3.org/1999/xlink">
 <metadata>
  <rdf:RDF xmlns:cc="http://creativecommons.org/ns#" xmlns:dc="http://purl.org/dc/elements/1.1/" xmlns:rdf="http://www.w3.org/1999/02/22-rdf-syntax-ns#">
   <cc:Work>
    <dc:type rdf:resource="http://purl.org/dc/dcmitype/StillImage"/>
    <dc:date>2022-04-04T06:19:50.843181</dc:date>
    <dc:format>image/svg+xml</dc:format>
    <dc:creator>
     <cc:Agent>
      <dc:title>Matplotlib v3.4.3, https://matplotlib.org/</dc:title>
     </cc:Agent>
    </dc:creator>
   </cc:Work>
  </rdf:RDF>
 </metadata>
 <defs>
  <style type="text/css">*{stroke-linecap:butt;stroke-linejoin:round;}</style>
 </defs>
 <g id="figure_1">
  <g id="patch_1">
   <path d="M 0 179.28 
L 180 179.28 
L 180 0 
L 0 0 
z
" style="fill:#ffffff;"/>
  </g>
  <g id="axes_1">
   <g id="patch_2">
    <path clip-path="url(#p2059d747ff)" d="M 47.558017 81.860699 
L 45.674631 85.730546 
L 57.463097 90.271168 
L 58.40479 88.336244 
z
" style="stroke:#000000;stroke-linejoin:miter;"/>
   </g>
   <g id="patch_3">
    <path clip-path="url(#p2059d747ff)" d="M 69.251564 94.81179 
L 58.40479 88.336244 
L 57.463097 90.271168 
z
" style="stroke:#000000;stroke-linejoin:miter;"/>
   </g>
   <g id="patch_4">
    <path clip-path="url(#p2059d747ff)" d="M 105.95702 81.297157 
L 118.937787 89.263661 
L 117.685442 91.013618 
z
" style="stroke:#000000;stroke-linejoin:miter;"/>
   </g>
   <g id="patch_5">
    <path clip-path="url(#p2059d747ff)" d="M 131.918553 97.230166 
L 129.413864 100.730079 
L 117.685442 91.013618 
L 118.937787 89.263661 
z
" style="stroke:#000000;stroke-linejoin:miter;"/>
   </g>
   <g id="patch_6">
    <path clip-path="url(#p2059d747ff)" d="M 92.316922 98.35653 
L 92.180256 94.05488 
L 97.591484 94.95946 
L 97.659817 97.110284 
z
" style="stroke:#000000;stroke-linejoin:miter;"/>
   </g>
   <g id="patch_7">
    <path clip-path="url(#p2059d747ff)" d="M 108.379774 95.693206 
L 97.659817 97.110284 
L 97.591484 94.95946 
z
" style="stroke:#000000;stroke-linejoin:miter;"/>
   </g>
   <g id="line2d_1">
    <path clip-path="url(#p2059d747ff)" d="M 83.466184 30.996133 
L 88.773361 40.355715 
" style="fill:none;stroke:#000000;stroke-linecap:square;stroke-width:2;"/>
   </g>
   <g id="line2d_2">
    <path clip-path="url(#p2059d747ff)" d="M 94.080539 49.715296 
L 88.773361 40.355715 
" style="fill:none;stroke:#000000;stroke-linecap:square;stroke-width:2;"/>
   </g>
   <g id="line2d_3">
    <path clip-path="url(#p2059d747ff)" d="M 94.080539 49.715296 
L 105.799124 48.532789 
" style="fill:none;stroke:#000000;stroke-linecap:square;stroke-width:2;"/>
   </g>
   <g id="line2d_4">
    <path clip-path="url(#p2059d747ff)" d="M 117.517709 47.350281 
L 105.799124 48.532789 
" style="fill:none;stroke:#000000;stroke-linecap:square;stroke-width:2;"/>
   </g>
   <g id="line2d_5">
    <path clip-path="url(#p2059d747ff)" d="M 96.813145 53.332661 
L 106.188013 52.386655 
" style="fill:none;stroke:#000000;stroke-linecap:square;stroke-width:2;"/>
   </g>
   <g id="line2d_6">
    <path clip-path="url(#p2059d747ff)" d="M 115.562881 51.440649 
L 106.188013 52.386655 
" style="fill:none;stroke:#000000;stroke-linecap:square;stroke-width:2;"/>
   </g>
   <g id="line2d_7">
    <path clip-path="url(#p2059d747ff)" d="M 117.517709 47.350281 
L 121.771611 59.138984 
" style="fill:none;stroke:#000000;stroke-linecap:square;stroke-width:2;"/>
   </g>
   <g id="line2d_8">
    <path clip-path="url(#p2059d747ff)" d="M 126.025512 70.927686 
L 121.771611 59.138984 
" style="fill:none;stroke:#000000;stroke-linecap:square;stroke-width:2;"/>
   </g>
   <g id="line2d_9">
    <path clip-path="url(#p2059d747ff)" d="M 126.713806 72.835135 
L 136.861868 72.374124 
" style="fill:none;stroke:#000000;stroke-linecap:square;stroke-width:2;"/>
   </g>
   <g id="line2d_10">
    <path clip-path="url(#p2059d747ff)" d="M 142.2361 72.129981 
L 136.861868 72.374124 
" style="fill:none;stroke:#000000;stroke-linecap:square;stroke-width:2;"/>
   </g>
   <g id="line2d_11">
    <path clip-path="url(#p2059d747ff)" d="M 125.337218 69.020238 
L 136.686085 68.504677 
" style="fill:none;stroke:#000000;stroke-linecap:square;stroke-width:2;"/>
   </g>
   <g id="line2d_12">
    <path clip-path="url(#p2059d747ff)" d="M 142.060317 68.260534 
L 136.686085 68.504677 
" style="fill:none;stroke:#000000;stroke-linecap:square;stroke-width:2;"/>
   </g>
   <g id="line2d_13">
    <path clip-path="url(#p2059d747ff)" d="M 108.379774 95.693206 
L 117.202643 83.310446 
" style="fill:none;stroke:#000000;stroke-linecap:square;stroke-width:2;"/>
   </g>
   <g id="line2d_14">
    <path clip-path="url(#p2059d747ff)" d="M 126.025512 70.927686 
L 117.202643 83.310446 
" style="fill:none;stroke:#000000;stroke-linecap:square;stroke-width:2;"/>
   </g>
   <g id="line2d_15">
    <path clip-path="url(#p2059d747ff)" d="M 105.95702 81.297157 
L 107.168397 88.495181 
" style="fill:none;stroke:#000000;stroke-linecap:square;stroke-width:2;"/>
   </g>
   <g id="line2d_16">
    <path clip-path="url(#p2059d747ff)" d="M 108.379774 95.693206 
L 107.168397 88.495181 
" style="fill:none;stroke:#000000;stroke-linecap:square;stroke-width:2;"/>
   </g>
   <g id="line2d_17">
    <path clip-path="url(#p2059d747ff)" d="M 82.181486 72.428593 
L 94.069253 76.862875 
" style="fill:none;stroke:#000000;stroke-linecap:square;stroke-width:2;"/>
   </g>
   <g id="line2d_18">
    <path clip-path="url(#p2059d747ff)" d="M 105.95702 81.297157 
L 94.069253 76.862875 
" style="fill:none;stroke:#000000;stroke-linecap:square;stroke-width:2;"/>
   </g>
   <g id="line2d_19">
    <path clip-path="url(#p2059d747ff)" d="M 82.181486 72.428593 
L 82.181486 72.428593 
" style="fill:none;stroke:#000000;stroke-linecap:square;stroke-width:2;"/>
   </g>
   <g id="line2d_20">
    <path clip-path="url(#p2059d747ff)" d="M 84.180062 67.686212 
L 84.942532 68.085655 
" style="fill:none;stroke:#000000;stroke-linecap:square;stroke-width:2;"/>
   </g>
   <g id="line2d_21">
    <path clip-path="url(#p2059d747ff)" d="M 86.178638 62.943831 
L 87.703577 63.742717 
" style="fill:none;stroke:#000000;stroke-linecap:square;stroke-width:2;"/>
   </g>
   <g id="line2d_22">
    <path clip-path="url(#p2059d747ff)" d="M 92.174365 48.716689 
L 95.986713 50.713904 
" style="fill:none;stroke:#000000;stroke-linecap:square;stroke-width:2;"/>
   </g>
   <g id="line2d_23">
    <path clip-path="url(#p2059d747ff)" d="M 90.17579 53.45907 
L 93.225668 55.056842 
" style="fill:none;stroke:#000000;stroke-linecap:square;stroke-width:2;"/>
   </g>
   <g id="line2d_24">
    <path clip-path="url(#p2059d747ff)" d="M 88.177214 58.201451 
L 90.464623 59.39978 
" style="fill:none;stroke:#000000;stroke-linecap:square;stroke-width:2;"/>
   </g>
   <g id="line2d_25">
    <path clip-path="url(#p2059d747ff)" d="M 63.362662 55.861802 
L 72.772074 64.145198 
" style="fill:none;stroke:#000000;stroke-linecap:square;stroke-width:2;"/>
   </g>
   <g id="line2d_26">
    <path clip-path="url(#p2059d747ff)" d="M 82.181486 72.428593 
L 72.772074 64.145198 
" style="fill:none;stroke:#000000;stroke-linecap:square;stroke-width:2;"/>
   </g>
   <g id="line2d_27">
    <path clip-path="url(#p2059d747ff)" d="M 46.607579 60.059037 
L 52.192607 58.659959 
" style="fill:none;stroke:#000000;stroke-linecap:square;stroke-width:2;"/>
   </g>
   <g id="line2d_28">
    <path clip-path="url(#p2059d747ff)" d="M 63.362662 55.861802 
L 52.192607 58.659959 
" style="fill:none;stroke:#000000;stroke-linecap:square;stroke-width:2;"/>
   </g>
   <g id="line2d_29">
    <path clip-path="url(#p2059d747ff)" d="M 42.420994 67.042492 
L 43.819437 72.626869 
" style="fill:none;stroke:#000000;stroke-linecap:square;stroke-width:2;"/>
   </g>
   <g id="line2d_30">
    <path clip-path="url(#p2059d747ff)" d="M 46.616324 83.795622 
L 43.819437 72.626869 
" style="fill:none;stroke:#000000;stroke-linecap:square;stroke-width:2;"/>
   </g>
   <g id="line2d_31">
    <path clip-path="url(#p2059d747ff)" d="M 34.24488 94.339627 
L 38.725928 91.362685 
" style="fill:none;stroke:#000000;stroke-linecap:square;stroke-width:2;"/>
   </g>
   <g id="line2d_32">
    <path clip-path="url(#p2059d747ff)" d="M 47.115538 85.789125 
L 38.725928 91.362685 
" style="fill:none;stroke:#000000;stroke-linecap:square;stroke-width:2;"/>
   </g>
   <g id="line2d_33">
    <path clip-path="url(#p2059d747ff)" d="M 32.101481 91.113273 
L 36.582529 88.13633 
" style="fill:none;stroke:#000000;stroke-linecap:square;stroke-width:2;"/>
   </g>
   <g id="line2d_34">
    <path clip-path="url(#p2059d747ff)" d="M 46.11711 81.80212 
L 36.582529 88.13633 
" style="fill:none;stroke:#000000;stroke-linecap:square;stroke-width:2;"/>
   </g>
   <g id="line2d_35">
    <path clip-path="url(#p2059d747ff)" d="M 69.251564 94.81179 
L 75.716525 83.620192 
" style="fill:none;stroke:#000000;stroke-linecap:square;stroke-width:2;"/>
   </g>
   <g id="line2d_36">
    <path clip-path="url(#p2059d747ff)" d="M 82.181486 72.428593 
L 75.716525 83.620192 
" style="fill:none;stroke:#000000;stroke-linecap:square;stroke-width:2;"/>
   </g>
   <g id="line2d_37">
    <path clip-path="url(#p2059d747ff)" d="M 69.251564 94.81179 
L 79.000336 103.301904 
" style="fill:none;stroke:#000000;stroke-linecap:square;stroke-width:2;"/>
   </g>
   <g id="line2d_38">
    <path clip-path="url(#p2059d747ff)" d="M 88.749109 111.792018 
L 79.000336 103.301904 
" style="fill:none;stroke:#000000;stroke-linecap:square;stroke-width:2;"/>
   </g>
   <g id="line2d_39">
    <path clip-path="url(#p2059d747ff)" d="M 88.749109 111.792018 
L 98.564442 103.742612 
" style="fill:none;stroke:#000000;stroke-linecap:square;stroke-width:2;"/>
   </g>
   <g id="line2d_40">
    <path clip-path="url(#p2059d747ff)" d="M 108.379774 95.693206 
L 98.564442 103.742612 
" style="fill:none;stroke:#000000;stroke-linecap:square;stroke-width:2;"/>
   </g>
   <g id="line2d_41">
    <path clip-path="url(#p2059d747ff)" d="M 74.474461 132.519881 
L 78.21479 134.648921 
" style="fill:none;stroke:#000000;stroke-linecap:square;stroke-width:2;"/>
   </g>
   <g id="line2d_42">
    <path clip-path="url(#p2059d747ff)" d="M 77.329391 128.374309 
L 80.321654 130.07754 
" style="fill:none;stroke:#000000;stroke-linecap:square;stroke-width:2;"/>
   </g>
   <g id="line2d_43">
    <path clip-path="url(#p2059d747ff)" d="M 80.184321 124.228736 
L 82.428518 125.50616 
" style="fill:none;stroke:#000000;stroke-linecap:square;stroke-width:2;"/>
   </g>
   <g id="line2d_44">
    <path clip-path="url(#p2059d747ff)" d="M 88.749109 111.792018 
L 88.749109 111.792018 
" style="fill:none;stroke:#000000;stroke-linecap:square;stroke-width:2;"/>
   </g>
   <g id="line2d_45">
    <path clip-path="url(#p2059d747ff)" d="M 85.89418 115.937591 
L 86.642245 116.363399 
" style="fill:none;stroke:#000000;stroke-linecap:square;stroke-width:2;"/>
   </g>
   <g id="line2d_46">
    <path clip-path="url(#p2059d747ff)" d="M 83.03925 120.083163 
L 84.535382 120.934779 
" style="fill:none;stroke:#000000;stroke-linecap:square;stroke-width:2;"/>
   </g>
   <g id="line2d_47">
    <path clip-path="url(#p2059d747ff)" d="M 59.129542 135.040665 
L 64.867903 134.555244 
" style="fill:none;stroke:#000000;stroke-linecap:square;stroke-width:2;"/>
   </g>
   <g id="line2d_48">
    <path clip-path="url(#p2059d747ff)" d="M 76.344626 133.584401 
L 64.867903 134.555244 
" style="fill:none;stroke:#000000;stroke-linecap:square;stroke-width:2;"/>
   </g>
   <g id="line2d_49">
    <path clip-path="url(#p2059d747ff)" d="M 51.42557 112.57953 
L 52.408376 124.052808 
" style="fill:none;stroke:#000000;stroke-linecap:square;stroke-width:2;"/>
   </g>
   <g id="line2d_50">
    <path clip-path="url(#p2059d747ff)" d="M 52.899778 129.789447 
L 52.408376 124.052808 
" style="fill:none;stroke:#000000;stroke-linecap:square;stroke-width:2;"/>
   </g>
   <g id="line2d_51">
    <path clip-path="url(#p2059d747ff)" d="M 51.42557 112.57953 
L 60.338567 103.69566 
" style="fill:none;stroke:#000000;stroke-linecap:square;stroke-width:2;"/>
   </g>
   <g id="line2d_52">
    <path clip-path="url(#p2059d747ff)" d="M 69.251564 94.81179 
L 60.338567 103.69566 
" style="fill:none;stroke:#000000;stroke-linecap:square;stroke-width:2;"/>
   </g>
   <g id="line2d_53">
    <path clip-path="url(#p2059d747ff)" d="M 88.749109 111.792018 
L 98.051089 120.613031 
" style="fill:none;stroke:#000000;stroke-linecap:square;stroke-width:2;"/>
   </g>
   <g id="line2d_54">
    <path clip-path="url(#p2059d747ff)" d="M 107.35307 129.434044 
L 98.051089 120.613031 
" style="fill:none;stroke:#000000;stroke-linecap:square;stroke-width:2;"/>
   </g>
   <g id="line2d_55">
    <path clip-path="url(#p2059d747ff)" d="M 107.35307 129.434044 
L 118.824511 126.743497 
" style="fill:none;stroke:#000000;stroke-linecap:square;stroke-width:2;"/>
   </g>
   <g id="line2d_56">
    <path clip-path="url(#p2059d747ff)" d="M 130.295953 124.05295 
L 118.824511 126.743497 
" style="fill:none;stroke:#000000;stroke-linecap:square;stroke-width:2;"/>
   </g>
   <g id="line2d_57">
    <path clip-path="url(#p2059d747ff)" d="M 108.762872 125.124833 
L 117.940026 122.972396 
" style="fill:none;stroke:#000000;stroke-linecap:square;stroke-width:2;"/>
   </g>
   <g id="line2d_58">
    <path clip-path="url(#p2059d747ff)" d="M 127.117179 120.819958 
L 117.940026 122.972396 
" style="fill:none;stroke:#000000;stroke-linecap:square;stroke-width:2;"/>
   </g>
   <g id="line2d_59">
    <path clip-path="url(#p2059d747ff)" d="M 130.295953 124.05295 
L 130.481081 111.516536 
" style="fill:none;stroke:#000000;stroke-linecap:square;stroke-width:2;"/>
   </g>
   <g id="line2d_60">
    <path clip-path="url(#p2059d747ff)" d="M 130.666209 98.980123 
L 130.481081 111.516536 
" style="fill:none;stroke:#000000;stroke-linecap:square;stroke-width:2;"/>
   </g>
   <g id="line2d_61">
    <path clip-path="url(#p2059d747ff)" d="M 130.636263 101.007992 
L 141.534439 97.796756 
" style="fill:none;stroke:#000000;stroke-linecap:square;stroke-width:2;"/>
   </g>
   <g id="line2d_62">
    <path clip-path="url(#p2059d747ff)" d="M 146.694854 96.276198 
L 141.534439 97.796756 
" style="fill:none;stroke:#000000;stroke-linecap:square;stroke-width:2;"/>
   </g>
   <g id="line2d_63">
    <path clip-path="url(#p2059d747ff)" d="M 130.696155 96.952253 
L 140.439637 94.081257 
" style="fill:none;stroke:#000000;stroke-linecap:square;stroke-width:2;"/>
   </g>
   <g id="line2d_64">
    <path clip-path="url(#p2059d747ff)" d="M 145.600052 92.560699 
L 140.439637 94.081257 
" style="fill:none;stroke:#000000;stroke-linecap:square;stroke-width:2;"/>
   </g>
   <g id="line2d_65">
    <path clip-path="url(#p2059d747ff)" d="M 130.295953 124.05295 
L 138.403889 131.126088 
" style="fill:none;stroke:#000000;stroke-linecap:square;stroke-width:2;"/>
   </g>
   <g id="line2d_66">
    <path clip-path="url(#p2059d747ff)" d="M 142.457857 134.662657 
L 138.403889 131.126088 
" style="fill:none;stroke:#000000;stroke-linecap:square;stroke-width:2;"/>
   </g>
   <g id="line2d_67">
    <path clip-path="url(#p2059d747ff)" d="M 103.367749 150.580884 
L 105.360409 140.007464 
" style="fill:none;stroke:#000000;stroke-linecap:square;stroke-width:2;"/>
   </g>
   <g id="line2d_68">
    <path clip-path="url(#p2059d747ff)" d="M 107.35307 129.434044 
L 105.360409 140.007464 
" style="fill:none;stroke:#000000;stroke-linecap:square;stroke-width:2;"/>
   </g>
   <g id="line2d_69">
    <path clip-path="url(#p2059d747ff)" d="M 117.517709 47.350281 
L 122.884404 38.024699 
" style="fill:none;stroke:#000000;stroke-linecap:square;stroke-width:2;"/>
   </g>
   <g id="line2d_70">
    <path clip-path="url(#p2059d747ff)" d="M 125.567751 33.361907 
L 122.884404 38.024699 
" style="fill:none;stroke:#000000;stroke-linecap:square;stroke-width:2;"/>
   </g>
   <g id="text_1">
    <!-- O -->
    <g transform="translate(143.586503 72.71049)scale(0.1 -0.1)">
     <defs>
      <path d="M 2522 4238 
Q 1834 4238 1429 3725 
Q 1025 3213 1025 2328 
Q 1025 1447 1429 934 
Q 1834 422 2522 422 
Q 3209 422 3611 934 
Q 4013 1447 4013 2328 
Q 4013 3213 3611 3725 
Q 3209 4238 2522 4238 
z
M 2522 4750 
Q 3503 4750 4090 4092 
Q 4678 3434 4678 2328 
Q 4678 1225 4090 567 
Q 3503 -91 2522 -91 
Q 1538 -91 948 565 
Q 359 1222 359 2328 
Q 359 3434 948 4092 
Q 1538 4750 2522 4750 
z
" id="DejaVuSans-4f" transform="scale(0.015625)"/>
     </defs>
     <use xlink:href="#DejaVuSans-4f"/>
    </g>
   </g>
   <g id="text_2">
    <!-- O -->
    <g transform="translate(37.086613 64.21749)scale(0.1 -0.1)">
     <use xlink:href="#DejaVuSans-4f"/>
    </g>
   </g>
   <g id="text_3">
    <!-- O -->
    <g transform="translate(24.756195 98.462768)scale(0.1 -0.1)">
     <use xlink:href="#DejaVuSans-4f"/>
    </g>
   </g>
   <g id="text_4">
    <!-- O -->
    <g transform="translate(49.455244 138.285462)scale(0.1 -0.1)">
     <use xlink:href="#DejaVuSans-4f"/>
    </g>
   </g>
   <g id="text_5">
    <!-- O -->
    <g transform="translate(147.37193 95.657265)scale(0.1 -0.1)">
     <use xlink:href="#DejaVuSans-4f"/>
    </g>
   </g>
   <g id="text_6">
    <!-- OH -->
    <g transform="translate(142.208005 140.958601)scale(0.1 -0.1)">
     <defs>
      <path d="M 628 4666 
L 1259 4666 
L 1259 2753 
L 3553 2753 
L 3553 4666 
L 4184 4666 
L 4184 0 
L 3553 0 
L 3553 2222 
L 1259 2222 
L 1259 0 
L 628 0 
L 628 4666 
z
" id="DejaVuSans-48" transform="scale(0.015625)"/>
     </defs>
     <use xlink:href="#DejaVuSans-4f"/>
     <use x="78.710938" xlink:href="#DejaVuSans-48"/>
    </g>
   </g>
   <g id="text_7">
    <!-- HO -->
    <g transform="translate(75.78316 99.135913)scale(0.1 -0.1)">
     <use xlink:href="#DejaVuSans-48"/>
     <use x="75.195312" xlink:href="#DejaVuSans-4f"/>
    </g>
   </g>
   <g id="text_8">
    <!-- OH -->
    <g transform="translate(123.947279 31.458491)scale(0.1 -0.1)">
     <use xlink:href="#DejaVuSans-4f"/>
     <use x="78.710938" xlink:href="#DejaVuSans-48"/>
    </g>
   </g>
  </g>
 </g>
 <defs>
  <clipPath id="p2059d747ff">
   <rect height="179.266033" width="180" x="0" y="0.006983"/>
  </clipPath>
 </defs>
</svg>
