<?xml version="1.0" encoding="utf-8" standalone="no"?>
<!DOCTYPE svg PUBLIC "-//W3C//DTD SVG 1.1//EN"
  "http://www.w3.org/Graphics/SVG/1.1/DTD/svg11.dtd">
<svg height="188.543041pt" version="1.1" viewBox="0 0 284.4 188.543041" width="284.4pt" xmlns="http://www.w3.org/2000/svg" xmlns:xlink="http://www.w3.org/1999/xlink">
 <metadata>
  <rdf:RDF xmlns:cc="http://creativecommons.org/ns#" xmlns:dc="http://purl.org/dc/elements/1.1/" xmlns:rdf="http://www.w3.org/1999/02/22-rdf-syntax-ns#">
   <cc:Work>
    <dc:type rdf:resource="http://purl.org/dc/dcmitype/StillImage"/>
    <dc:date>2021-11-30T12:23:09.543992</dc:date>
    <dc:format>image/svg+xml</dc:format>
    <dc:creator>
     <cc:Agent>
      <dc:title>Matplotlib v3.4.3, https://matplotlib.org/</dc:title>
     </cc:Agent>
    </dc:creator>
   </cc:Work>
  </rdf:RDF>
 </metadata>
 <defs>
  <style type="text/css">*{stroke-linecap:butt;stroke-linejoin:round;}</style>
 </defs>
 <g id="figure_1">
  <g id="patch_1">
   <path d="M 0 188.543041 
L 284.4 188.543041 
L 284.4 0 
L 0 0 
z
" style="fill:#ffffff;"/>
  </g>
  <g id="axes_1">
   <g id="line2d_1">
    <path clip-path="url(#p8c1317a6fe)" d="M 158.4 159.743041 
L 163.8 150.389967 
" style="fill:none;stroke:#000000;stroke-linecap:square;stroke-width:2;"/>
   </g>
   <g id="line2d_2">
    <path clip-path="url(#p8c1317a6fe)" d="M 166.5 145.71343 
L 163.8 150.389967 
" style="fill:none;stroke:#000000;stroke-linecap:square;stroke-width:2;"/>
   </g>
   <g id="line2d_3">
    <path clip-path="url(#p8c1317a6fe)" d="M 174.6 141.036892 
L 180 141.036892 
" style="fill:none;stroke:#000000;stroke-linecap:square;stroke-width:2;"/>
   </g>
   <g id="line2d_4">
    <path clip-path="url(#p8c1317a6fe)" d="M 190.8 141.036892 
L 180 141.036892 
" style="fill:none;stroke:#000000;stroke-linecap:square;stroke-width:2;"/>
   </g>
   <g id="line2d_5">
    <path clip-path="url(#p8c1317a6fe)" d="M 190.8 141.036892 
L 196.2 131.683818 
" style="fill:none;stroke:#000000;stroke-linecap:square;stroke-width:2;"/>
   </g>
   <g id="line2d_6">
    <path clip-path="url(#p8c1317a6fe)" d="M 201.6 122.330744 
L 196.2 131.683818 
" style="fill:none;stroke:#000000;stroke-linecap:square;stroke-width:2;"/>
   </g>
   <g id="line2d_7">
    <path clip-path="url(#p8c1317a6fe)" d="M 201.6 122.330744 
L 212.4 122.330744 
" style="fill:none;stroke:#000000;stroke-linecap:square;stroke-width:2;"/>
   </g>
   <g id="line2d_8">
    <path clip-path="url(#p8c1317a6fe)" d="M 223.2 122.330744 
L 212.4 122.330744 
" style="fill:none;stroke:#000000;stroke-linecap:square;stroke-width:2;"/>
   </g>
   <g id="line2d_9">
    <path clip-path="url(#p8c1317a6fe)" d="M 223.2 122.330744 
L 228.6 112.977669 
" style="fill:none;stroke:#000000;stroke-linecap:square;stroke-width:2;"/>
   </g>
   <g id="line2d_10">
    <path clip-path="url(#p8c1317a6fe)" d="M 234 103.624595 
L 228.6 112.977669 
" style="fill:none;stroke:#000000;stroke-linecap:square;stroke-width:2;"/>
   </g>
   <g id="line2d_11">
    <path clip-path="url(#p8c1317a6fe)" d="M 223.2 84.918446 
L 228.6 94.271521 
" style="fill:none;stroke:#000000;stroke-linecap:square;stroke-width:2;"/>
   </g>
   <g id="line2d_12">
    <path clip-path="url(#p8c1317a6fe)" d="M 234 103.624595 
L 228.6 94.271521 
" style="fill:none;stroke:#000000;stroke-linecap:square;stroke-width:2;"/>
   </g>
   <g id="line2d_13">
    <path clip-path="url(#p8c1317a6fe)" d="M 201.6 84.918446 
L 212.4 84.918446 
" style="fill:none;stroke:#000000;stroke-linecap:square;stroke-width:2;"/>
   </g>
   <g id="line2d_14">
    <path clip-path="url(#p8c1317a6fe)" d="M 223.2 84.918446 
L 212.4 84.918446 
" style="fill:none;stroke:#000000;stroke-linecap:square;stroke-width:2;"/>
   </g>
   <g id="line2d_15">
    <path clip-path="url(#p8c1317a6fe)" d="M 193.5 98.948058 
L 196.2 94.271521 
" style="fill:none;stroke:#000000;stroke-linecap:square;stroke-width:2;"/>
   </g>
   <g id="line2d_16">
    <path clip-path="url(#p8c1317a6fe)" d="M 201.6 84.918446 
L 196.2 94.271521 
" style="fill:none;stroke:#000000;stroke-linecap:square;stroke-width:2;"/>
   </g>
   <g id="line2d_17">
    <path clip-path="url(#p8c1317a6fe)" d="M 193.5 108.301132 
L 196.2 112.977669 
" style="fill:none;stroke:#000000;stroke-linecap:square;stroke-width:2;"/>
   </g>
   <g id="line2d_18">
    <path clip-path="url(#p8c1317a6fe)" d="M 201.6 122.330744 
L 196.2 112.977669 
" style="fill:none;stroke:#000000;stroke-linecap:square;stroke-width:2;"/>
   </g>
   <g id="line2d_19">
    <path clip-path="url(#p8c1317a6fe)" d="M 193.5 70.888835 
L 196.2 75.565372 
" style="fill:none;stroke:#000000;stroke-linecap:square;stroke-width:2;"/>
   </g>
   <g id="line2d_20">
    <path clip-path="url(#p8c1317a6fe)" d="M 201.6 84.918446 
L 196.2 75.565372 
" style="fill:none;stroke:#000000;stroke-linecap:square;stroke-width:2;"/>
   </g>
   <g id="line2d_21">
    <path clip-path="url(#p8c1317a6fe)" d="M 169.2 66.212297 
L 180 66.212297 
" style="fill:none;stroke:#000000;stroke-linecap:square;stroke-width:2;"/>
   </g>
   <g id="line2d_22">
    <path clip-path="url(#p8c1317a6fe)" d="M 185.4 66.212297 
L 180 66.212297 
" style="fill:none;stroke:#000000;stroke-linecap:square;stroke-width:2;"/>
   </g>
   <g id="line2d_23">
    <path clip-path="url(#p8c1317a6fe)" d="M 158.4 47.506149 
L 163.8 56.859223 
" style="fill:none;stroke:#000000;stroke-linecap:square;stroke-width:2;"/>
   </g>
   <g id="line2d_24">
    <path clip-path="url(#p8c1317a6fe)" d="M 169.2 66.212297 
L 163.8 56.859223 
" style="fill:none;stroke:#000000;stroke-linecap:square;stroke-width:2;"/>
   </g>
   <g id="line2d_25">
    <path clip-path="url(#p8c1317a6fe)" d="M 136.8 47.506149 
L 147.6 47.506149 
" style="fill:none;stroke:#000000;stroke-linecap:square;stroke-width:2;"/>
   </g>
   <g id="line2d_26">
    <path clip-path="url(#p8c1317a6fe)" d="M 158.4 47.506149 
L 147.6 47.506149 
" style="fill:none;stroke:#000000;stroke-linecap:square;stroke-width:2;"/>
   </g>
   <g id="line2d_27">
    <path clip-path="url(#p8c1317a6fe)" d="M 126 66.212297 
L 131.4 56.859223 
" style="fill:none;stroke:#000000;stroke-linecap:square;stroke-width:2;"/>
   </g>
   <g id="line2d_28">
    <path clip-path="url(#p8c1317a6fe)" d="M 136.8 47.506149 
L 131.4 56.859223 
" style="fill:none;stroke:#000000;stroke-linecap:square;stroke-width:2;"/>
   </g>
   <g id="line2d_29">
    <path clip-path="url(#p8c1317a6fe)" d="M 126 66.212297 
L 131.4 75.565372 
" style="fill:none;stroke:#000000;stroke-linecap:square;stroke-width:2;"/>
   </g>
   <g id="line2d_30">
    <path clip-path="url(#p8c1317a6fe)" d="M 136.8 84.918446 
L 131.4 75.565372 
" style="fill:none;stroke:#000000;stroke-linecap:square;stroke-width:2;"/>
   </g>
   <g id="line2d_31">
    <path clip-path="url(#p8c1317a6fe)" d="M 136.8 84.918446 
L 147.6 84.918446 
" style="fill:none;stroke:#000000;stroke-linecap:square;stroke-width:2;"/>
   </g>
   <g id="line2d_32">
    <path clip-path="url(#p8c1317a6fe)" d="M 158.4 84.918446 
L 147.6 84.918446 
" style="fill:none;stroke:#000000;stroke-linecap:square;stroke-width:2;"/>
   </g>
   <g id="line2d_33">
    <path clip-path="url(#p8c1317a6fe)" d="M 158.4 84.918446 
L 163.8 75.565372 
" style="fill:none;stroke:#000000;stroke-linecap:square;stroke-width:2;"/>
   </g>
   <g id="line2d_34">
    <path clip-path="url(#p8c1317a6fe)" d="M 169.2 66.212297 
L 163.8 75.565372 
" style="fill:none;stroke:#000000;stroke-linecap:square;stroke-width:2;"/>
   </g>
   <g id="line2d_35">
    <path clip-path="url(#p8c1317a6fe)" d="M 158.4 84.918446 
L 163.8 94.271521 
" style="fill:none;stroke:#000000;stroke-linecap:square;stroke-width:2;"/>
   </g>
   <g id="line2d_36">
    <path clip-path="url(#p8c1317a6fe)" d="M 166.5 98.948058 
L 163.8 94.271521 
" style="fill:none;stroke:#000000;stroke-linecap:square;stroke-width:2;"/>
   </g>
   <g id="line2d_37">
    <path clip-path="url(#p8c1317a6fe)" d="M 128.7 98.948058 
L 131.4 94.271521 
" style="fill:none;stroke:#000000;stroke-linecap:square;stroke-width:2;"/>
   </g>
   <g id="line2d_38">
    <path clip-path="url(#p8c1317a6fe)" d="M 136.8 84.918446 
L 131.4 94.271521 
" style="fill:none;stroke:#000000;stroke-linecap:square;stroke-width:2;"/>
   </g>
   <g id="line2d_39">
    <path clip-path="url(#p8c1317a6fe)" d="M 109.8 66.212297 
L 115.2 66.212297 
" style="fill:none;stroke:#000000;stroke-linecap:square;stroke-width:2;"/>
   </g>
   <g id="line2d_40">
    <path clip-path="url(#p8c1317a6fe)" d="M 126 66.212297 
L 115.2 66.212297 
" style="fill:none;stroke:#000000;stroke-linecap:square;stroke-width:2;"/>
   </g>
   <g id="line2d_41">
    <path clip-path="url(#p8c1317a6fe)" d="M 93.6 84.918446 
L 99 75.565372 
" style="fill:none;stroke:#000000;stroke-linecap:square;stroke-width:2;"/>
   </g>
   <g id="line2d_42">
    <path clip-path="url(#p8c1317a6fe)" d="M 101.7 70.888835 
L 99 75.565372 
" style="fill:none;stroke:#000000;stroke-linecap:square;stroke-width:2;"/>
   </g>
   <g id="line2d_43">
    <path clip-path="url(#p8c1317a6fe)" d="M 94.722369 82.974446 
L 100.683553 93.299521 
" style="fill:none;stroke:#000000;stroke-linecap:square;stroke-width:2;"/>
   </g>
   <g id="line2d_44">
    <path clip-path="url(#p8c1317a6fe)" d="M 102.843553 97.04075 
L 100.683553 93.299521 
" style="fill:none;stroke:#000000;stroke-linecap:square;stroke-width:2;"/>
   </g>
   <g id="line2d_45">
    <path clip-path="url(#p8c1317a6fe)" d="M 91.355262 84.918446 
L 97.316447 95.243521 
" style="fill:none;stroke:#000000;stroke-linecap:square;stroke-width:2;"/>
   </g>
   <g id="line2d_46">
    <path clip-path="url(#p8c1317a6fe)" d="M 99.476447 98.98475 
L 97.316447 95.243521 
" style="fill:none;stroke:#000000;stroke-linecap:square;stroke-width:2;"/>
   </g>
   <g id="line2d_47">
    <path clip-path="url(#p8c1317a6fe)" d="M 72 84.918446 
L 82.8 84.918446 
" style="fill:none;stroke:#000000;stroke-linecap:square;stroke-width:2;"/>
   </g>
   <g id="line2d_48">
    <path clip-path="url(#p8c1317a6fe)" d="M 93.6 84.918446 
L 82.8 84.918446 
" style="fill:none;stroke:#000000;stroke-linecap:square;stroke-width:2;"/>
   </g>
   <g id="line2d_49">
    <path clip-path="url(#p8c1317a6fe)" d="M 61.2 103.624595 
L 66.6 94.271521 
" style="fill:none;stroke:#000000;stroke-linecap:square;stroke-width:2;"/>
   </g>
   <g id="line2d_50">
    <path clip-path="url(#p8c1317a6fe)" d="M 72 84.918446 
L 66.6 94.271521 
" style="fill:none;stroke:#000000;stroke-linecap:square;stroke-width:2;"/>
   </g>
   <g id="line2d_51">
    <path clip-path="url(#p8c1317a6fe)" d="M 39.6 103.624595 
L 50.4 103.624595 
" style="fill:none;stroke:#000000;stroke-linecap:square;stroke-width:2;"/>
   </g>
   <g id="line2d_52">
    <path clip-path="url(#p8c1317a6fe)" d="M 61.2 103.624595 
L 50.4 103.624595 
" style="fill:none;stroke:#000000;stroke-linecap:square;stroke-width:2;"/>
   </g>
   <g id="line2d_53">
    <path clip-path="url(#p8c1317a6fe)" d="M 31.5 117.654206 
L 34.2 112.977669 
" style="fill:none;stroke:#000000;stroke-linecap:square;stroke-width:2;"/>
   </g>
   <g id="line2d_54">
    <path clip-path="url(#p8c1317a6fe)" d="M 39.6 103.624595 
L 34.2 112.977669 
" style="fill:none;stroke:#000000;stroke-linecap:square;stroke-width:2;"/>
   </g>
   <g id="line2d_55">
    <path clip-path="url(#p8c1317a6fe)" d="M 64.397631 74.342757 
L 66.642369 73.046757 
" style="fill:none;stroke:#000000;stroke-linecap:square;stroke-width:2;"/>
   </g>
   <g id="line2d_56">
    <path clip-path="url(#p8c1317a6fe)" d="M 72 84.918446 
L 72 84.918446 
" style="fill:none;stroke:#000000;stroke-linecap:square;stroke-width:2;"/>
   </g>
   <g id="line2d_57">
    <path clip-path="url(#p8c1317a6fe)" d="M 69.465877 81.393216 
L 70.214123 80.961216 
" style="fill:none;stroke:#000000;stroke-linecap:square;stroke-width:2;"/>
   </g>
   <g id="line2d_58">
    <path clip-path="url(#p8c1317a6fe)" d="M 66.931754 77.867987 
L 68.428246 77.003987 
" style="fill:none;stroke:#000000;stroke-linecap:square;stroke-width:2;"/>
   </g>
   <g id="line2d_59">
    <path clip-path="url(#p8c1317a6fe)" d="M 158.4 47.506149 
L 163.8 38.153074 
" style="fill:none;stroke:#000000;stroke-linecap:square;stroke-width:2;"/>
   </g>
   <g id="line2d_60">
    <path clip-path="url(#p8c1317a6fe)" d="M 166.5 33.476537 
L 163.8 38.153074 
" style="fill:none;stroke:#000000;stroke-linecap:square;stroke-width:2;"/>
   </g>
   <g id="line2d_61">
    <path clip-path="url(#p8c1317a6fe)" d="M 223.2 84.918446 
L 228.6 75.565372 
" style="fill:none;stroke:#000000;stroke-linecap:square;stroke-width:2;"/>
   </g>
   <g id="line2d_62">
    <path clip-path="url(#p8c1317a6fe)" d="M 231.3 70.888835 
L 228.6 75.565372 
" style="fill:none;stroke:#000000;stroke-linecap:square;stroke-width:2;"/>
   </g>
   <g id="line2d_63">
    <path clip-path="url(#p8c1317a6fe)" d="M 234 103.624595 
L 244.8 103.624595 
" style="fill:none;stroke:#000000;stroke-linecap:square;stroke-width:2;"/>
   </g>
   <g id="line2d_64">
    <path clip-path="url(#p8c1317a6fe)" d="M 250.2 103.624595 
L 244.8 103.624595 
" style="fill:none;stroke:#000000;stroke-linecap:square;stroke-width:2;"/>
   </g>
   <g id="line2d_65">
    <path clip-path="url(#p8c1317a6fe)" d="M 223.2 122.330744 
L 228.6 131.683818 
" style="fill:none;stroke:#000000;stroke-linecap:square;stroke-width:2;"/>
   </g>
   <g id="line2d_66">
    <path clip-path="url(#p8c1317a6fe)" d="M 231.3 136.360355 
L 228.6 131.683818 
" style="fill:none;stroke:#000000;stroke-linecap:square;stroke-width:2;"/>
   </g>
   <g id="text_1">
    <!-- NH -->
    <g transform="translate(164.88 143.796267)scale(0.1 -0.1)">
     <defs>
      <path d="M 628 4666 
L 1478 4666 
L 3547 763 
L 3547 4666 
L 4159 4666 
L 4159 0 
L 3309 0 
L 1241 3903 
L 1241 0 
L 628 0 
L 628 4666 
z
" id="DejaVuSans-4e" transform="scale(0.015625)"/>
      <path d="M 628 4666 
L 1259 4666 
L 1259 2753 
L 3553 2753 
L 3553 4666 
L 4184 4666 
L 4184 0 
L 3553 0 
L 3553 2222 
L 1259 2222 
L 1259 0 
L 628 0 
L 628 4666 
z
" id="DejaVuSans-48" transform="scale(0.015625)"/>
     </defs>
     <use xlink:href="#DejaVuSans-4e"/>
     <use x="74.804688" xlink:href="#DejaVuSans-48"/>
    </g>
   </g>
   <g id="text_2">
    <!-- O -->
    <g transform="translate(186.864063 106.38397)scale(0.1 -0.1)">
     <defs>
      <path d="M 2522 4238 
Q 1834 4238 1429 3725 
Q 1025 3213 1025 2328 
Q 1025 1447 1429 934 
Q 1834 422 2522 422 
Q 3209 422 3611 934 
Q 4013 1447 4013 2328 
Q 4013 3213 3611 3725 
Q 3209 4238 2522 4238 
z
M 2522 4750 
Q 3503 4750 4090 4092 
Q 4678 3434 4678 2328 
Q 4678 1225 4090 567 
Q 3503 -91 2522 -91 
Q 1538 -91 948 565 
Q 359 1222 359 2328 
Q 359 3434 948 4092 
Q 1538 4750 2522 4750 
z
" id="DejaVuSans-4f" transform="scale(0.015625)"/>
     </defs>
     <use xlink:href="#DejaVuSans-4f"/>
    </g>
   </g>
   <g id="text_3">
    <!-- O -->
    <g transform="translate(186.864063 68.971672)scale(0.1 -0.1)">
     <use xlink:href="#DejaVuSans-4f"/>
    </g>
   </g>
   <g id="text_4">
    <!-- OH -->
    <g transform="translate(164.88 106.38397)scale(0.1 -0.1)">
     <use xlink:href="#DejaVuSans-4f"/>
     <use x="78.710938" xlink:href="#DejaVuSans-48"/>
    </g>
   </g>
   <g id="text_5">
    <!-- HO -->
    <g transform="translate(114.927812 106.38397)scale(0.1 -0.1)">
     <use xlink:href="#DejaVuSans-48"/>
     <use x="75.195312" xlink:href="#DejaVuSans-4f"/>
    </g>
   </g>
   <g id="text_6">
    <!-- HN -->
    <g transform="translate(93.718438 68.971672)scale(0.1 -0.1)">
     <use xlink:href="#DejaVuSans-48"/>
     <use x="75.195312" xlink:href="#DejaVuSans-4e"/>
    </g>
   </g>
   <g id="text_7">
    <!-- O -->
    <g transform="translate(100.464063 106.38397)scale(0.1 -0.1)">
     <use xlink:href="#DejaVuSans-4f"/>
    </g>
   </g>
   <g id="text_8">
    <!-- $H_2N$ -->
    <g transform="translate(13.22 125.090119)scale(0.1 -0.1)">
     <defs>
      <path d="M 1228 531 
L 3431 531 
L 3431 0 
L 469 0 
L 469 531 
Q 828 903 1448 1529 
Q 2069 2156 2228 2338 
Q 2531 2678 2651 2914 
Q 2772 3150 2772 3378 
Q 2772 3750 2511 3984 
Q 2250 4219 1831 4219 
Q 1534 4219 1204 4116 
Q 875 4013 500 3803 
L 500 4441 
Q 881 4594 1212 4672 
Q 1544 4750 1819 4750 
Q 2544 4750 2975 4387 
Q 3406 4025 3406 3419 
Q 3406 3131 3298 2873 
Q 3191 2616 2906 2266 
Q 2828 2175 2409 1742 
Q 1991 1309 1228 531 
z
" id="DejaVuSans-32" transform="scale(0.015625)"/>
     </defs>
     <use transform="translate(0 0.09375)" xlink:href="#DejaVuSans-48"/>
     <use transform="translate(76.152344 -16.3125)scale(0.7)" xlink:href="#DejaVuSans-32"/>
     <use transform="translate(123.422852 0.09375)" xlink:href="#DejaVuSans-4e"/>
    </g>
   </g>
   <g id="text_9">
    <!-- HO -->
    <g transform="translate(50.127813 68.971672)scale(0.1 -0.1)">
     <use xlink:href="#DejaVuSans-48"/>
     <use x="75.195312" xlink:href="#DejaVuSans-4f"/>
    </g>
   </g>
   <g id="text_10">
    <!-- $NH_2$ -->
    <g transform="translate(164.88 31.559375)scale(0.1 -0.1)">
     <use transform="translate(0 0.09375)" xlink:href="#DejaVuSans-4e"/>
     <use transform="translate(74.804688 0.09375)" xlink:href="#DejaVuSans-48"/>
     <use transform="translate(150.957031 -16.3125)scale(0.7)" xlink:href="#DejaVuSans-32"/>
    </g>
   </g>
   <g id="text_11">
    <!-- $NH_2$ -->
    <g transform="translate(229.68 68.971672)scale(0.1 -0.1)">
     <use transform="translate(0 0.09375)" xlink:href="#DejaVuSans-4e"/>
     <use transform="translate(74.804688 0.09375)" xlink:href="#DejaVuSans-48"/>
     <use transform="translate(150.957031 -16.3125)scale(0.7)" xlink:href="#DejaVuSans-32"/>
    </g>
   </g>
   <g id="text_12">
    <!-- OH -->
    <g transform="translate(251.28 106.38397)scale(0.1 -0.1)">
     <use xlink:href="#DejaVuSans-4f"/>
     <use x="78.710938" xlink:href="#DejaVuSans-48"/>
    </g>
   </g>
   <g id="text_13">
    <!-- OH -->
    <g transform="translate(229.68 143.796267)scale(0.1 -0.1)">
     <use xlink:href="#DejaVuSans-4f"/>
     <use x="78.710938" xlink:href="#DejaVuSans-48"/>
    </g>
   </g>
  </g>
 </g>
 <defs>
  <clipPath id="p8c1317a6fe">
   <rect height="188.543041" width="284.4" x="0" y="0"/>
  </clipPath>
 </defs>
</svg>
