<?xml version="1.0" encoding="utf-8" standalone="no"?>
<!DOCTYPE svg PUBLIC "-//W3C//DTD SVG 1.1//EN"
  "http://www.w3.org/Graphics/SVG/1.1/DTD/svg11.dtd">
<svg height="187.92pt" version="1.1" viewBox="0 0 284.4 187.92" width="284.4pt" xmlns="http://www.w3.org/2000/svg" xmlns:xlink="http://www.w3.org/1999/xlink">
 <metadata>
  <rdf:RDF xmlns:cc="http://creativecommons.org/ns#" xmlns:dc="http://purl.org/dc/elements/1.1/" xmlns:rdf="http://www.w3.org/1999/02/22-rdf-syntax-ns#">
   <cc:Work>
    <dc:type rdf:resource="http://purl.org/dc/dcmitype/StillImage"/>
    <dc:date>2022-04-04T06:19:51.009568</dc:date>
    <dc:format>image/svg+xml</dc:format>
    <dc:creator>
     <cc:Agent>
      <dc:title>Matplotlib v3.4.3, https://matplotlib.org/</dc:title>
     </cc:Agent>
    </dc:creator>
   </cc:Work>
  </rdf:RDF>
 </metadata>
 <defs>
  <style type="text/css">*{stroke-linecap:butt;stroke-linejoin:round;}</style>
 </defs>
 <g id="figure_1">
  <g id="patch_1">
   <path d="M 0 187.92 
L 284.4 187.92 
L 284.4 0 
L 0 0 
z
" style="fill:#ffffff;"/>
  </g>
  <g id="axes_1">
   <g id="line2d_1">
    <path clip-path="url(#pa3afdb8935)" d="M 158.346467 159.21517 
L 163.728623 149.893003 
" style="fill:none;stroke:#000000;stroke-linecap:square;stroke-width:2;"/>
   </g>
   <g id="line2d_2">
    <path clip-path="url(#pa3afdb8935)" d="M 166.419701 145.231919 
L 163.728623 149.893003 
" style="fill:none;stroke:#000000;stroke-linecap:square;stroke-width:2;"/>
   </g>
   <g id="line2d_3">
    <path clip-path="url(#pa3afdb8935)" d="M 174.492934 140.570835 
L 179.87509 140.570835 
" style="fill:none;stroke:#000000;stroke-linecap:square;stroke-width:2;"/>
   </g>
   <g id="line2d_4">
    <path clip-path="url(#pa3afdb8935)" d="M 190.639401 140.570835 
L 179.87509 140.570835 
" style="fill:none;stroke:#000000;stroke-linecap:square;stroke-width:2;"/>
   </g>
   <g id="line2d_5">
    <path clip-path="url(#pa3afdb8935)" d="M 190.639401 140.570835 
L 196.021557 131.248668 
" style="fill:none;stroke:#000000;stroke-linecap:square;stroke-width:2;"/>
   </g>
   <g id="line2d_6">
    <path clip-path="url(#pa3afdb8935)" d="M 201.403713 121.926501 
L 196.021557 131.248668 
" style="fill:none;stroke:#000000;stroke-linecap:square;stroke-width:2;"/>
   </g>
   <g id="line2d_7">
    <path clip-path="url(#pa3afdb8935)" d="M 201.403713 121.926501 
L 212.168024 121.926501 
" style="fill:none;stroke:#000000;stroke-linecap:square;stroke-width:2;"/>
   </g>
   <g id="line2d_8">
    <path clip-path="url(#pa3afdb8935)" d="M 222.932335 121.926501 
L 212.168024 121.926501 
" style="fill:none;stroke:#000000;stroke-linecap:square;stroke-width:2;"/>
   </g>
   <g id="line2d_9">
    <path clip-path="url(#pa3afdb8935)" d="M 222.932335 121.926501 
L 228.314491 112.604334 
" style="fill:none;stroke:#000000;stroke-linecap:square;stroke-width:2;"/>
   </g>
   <g id="line2d_10">
    <path clip-path="url(#pa3afdb8935)" d="M 233.696647 103.282167 
L 228.314491 112.604334 
" style="fill:none;stroke:#000000;stroke-linecap:square;stroke-width:2;"/>
   </g>
   <g id="line2d_11">
    <path clip-path="url(#pa3afdb8935)" d="M 222.932335 84.637833 
L 228.314491 93.96 
" style="fill:none;stroke:#000000;stroke-linecap:square;stroke-width:2;"/>
   </g>
   <g id="line2d_12">
    <path clip-path="url(#pa3afdb8935)" d="M 233.696647 103.282167 
L 228.314491 93.96 
" style="fill:none;stroke:#000000;stroke-linecap:square;stroke-width:2;"/>
   </g>
   <g id="line2d_13">
    <path clip-path="url(#pa3afdb8935)" d="M 201.403713 84.637833 
L 212.168024 84.637833 
" style="fill:none;stroke:#000000;stroke-linecap:square;stroke-width:2;"/>
   </g>
   <g id="line2d_14">
    <path clip-path="url(#pa3afdb8935)" d="M 222.932335 84.637833 
L 212.168024 84.637833 
" style="fill:none;stroke:#000000;stroke-linecap:square;stroke-width:2;"/>
   </g>
   <g id="line2d_15">
    <path clip-path="url(#pa3afdb8935)" d="M 193.330479 98.621084 
L 196.021557 93.96 
" style="fill:none;stroke:#000000;stroke-linecap:square;stroke-width:2;"/>
   </g>
   <g id="line2d_16">
    <path clip-path="url(#pa3afdb8935)" d="M 201.403713 84.637833 
L 196.021557 93.96 
" style="fill:none;stroke:#000000;stroke-linecap:square;stroke-width:2;"/>
   </g>
   <g id="line2d_17">
    <path clip-path="url(#pa3afdb8935)" d="M 193.330479 107.943251 
L 196.021557 112.604334 
" style="fill:none;stroke:#000000;stroke-linecap:square;stroke-width:2;"/>
   </g>
   <g id="line2d_18">
    <path clip-path="url(#pa3afdb8935)" d="M 201.403713 121.926501 
L 196.021557 112.604334 
" style="fill:none;stroke:#000000;stroke-linecap:square;stroke-width:2;"/>
   </g>
   <g id="line2d_19">
    <path clip-path="url(#pa3afdb8935)" d="M 193.330479 70.654582 
L 196.021557 75.315666 
" style="fill:none;stroke:#000000;stroke-linecap:square;stroke-width:2;"/>
   </g>
   <g id="line2d_20">
    <path clip-path="url(#pa3afdb8935)" d="M 201.403713 84.637833 
L 196.021557 75.315666 
" style="fill:none;stroke:#000000;stroke-linecap:square;stroke-width:2;"/>
   </g>
   <g id="line2d_21">
    <path clip-path="url(#pa3afdb8935)" d="M 169.110778 65.993499 
L 179.87509 65.993499 
" style="fill:none;stroke:#000000;stroke-linecap:square;stroke-width:2;"/>
   </g>
   <g id="line2d_22">
    <path clip-path="url(#pa3afdb8935)" d="M 185.257245 65.993499 
L 179.87509 65.993499 
" style="fill:none;stroke:#000000;stroke-linecap:square;stroke-width:2;"/>
   </g>
   <g id="line2d_23">
    <path clip-path="url(#pa3afdb8935)" d="M 158.346467 47.349165 
L 163.728623 56.671332 
" style="fill:none;stroke:#000000;stroke-linecap:square;stroke-width:2;"/>
   </g>
   <g id="line2d_24">
    <path clip-path="url(#pa3afdb8935)" d="M 169.110778 65.993499 
L 163.728623 56.671332 
" style="fill:none;stroke:#000000;stroke-linecap:square;stroke-width:2;"/>
   </g>
   <g id="line2d_25">
    <path clip-path="url(#pa3afdb8935)" d="M 136.817844 47.349165 
L 147.582156 47.349165 
" style="fill:none;stroke:#000000;stroke-linecap:square;stroke-width:2;"/>
   </g>
   <g id="line2d_26">
    <path clip-path="url(#pa3afdb8935)" d="M 158.346467 47.349165 
L 147.582156 47.349165 
" style="fill:none;stroke:#000000;stroke-linecap:square;stroke-width:2;"/>
   </g>
   <g id="line2d_27">
    <path clip-path="url(#pa3afdb8935)" d="M 126.053533 65.993499 
L 131.435689 56.671332 
" style="fill:none;stroke:#000000;stroke-linecap:square;stroke-width:2;"/>
   </g>
   <g id="line2d_28">
    <path clip-path="url(#pa3afdb8935)" d="M 136.817844 47.349165 
L 131.435689 56.671332 
" style="fill:none;stroke:#000000;stroke-linecap:square;stroke-width:2;"/>
   </g>
   <g id="line2d_29">
    <path clip-path="url(#pa3afdb8935)" d="M 126.053533 65.993499 
L 131.435689 75.315666 
" style="fill:none;stroke:#000000;stroke-linecap:square;stroke-width:2;"/>
   </g>
   <g id="line2d_30">
    <path clip-path="url(#pa3afdb8935)" d="M 136.817844 84.637833 
L 131.435689 75.315666 
" style="fill:none;stroke:#000000;stroke-linecap:square;stroke-width:2;"/>
   </g>
   <g id="line2d_31">
    <path clip-path="url(#pa3afdb8935)" d="M 136.817844 84.637833 
L 147.582156 84.637833 
" style="fill:none;stroke:#000000;stroke-linecap:square;stroke-width:2;"/>
   </g>
   <g id="line2d_32">
    <path clip-path="url(#pa3afdb8935)" d="M 158.346467 84.637833 
L 147.582156 84.637833 
" style="fill:none;stroke:#000000;stroke-linecap:square;stroke-width:2;"/>
   </g>
   <g id="line2d_33">
    <path clip-path="url(#pa3afdb8935)" d="M 158.346467 84.637833 
L 163.728623 75.315666 
" style="fill:none;stroke:#000000;stroke-linecap:square;stroke-width:2;"/>
   </g>
   <g id="line2d_34">
    <path clip-path="url(#pa3afdb8935)" d="M 169.110778 65.993499 
L 163.728623 75.315666 
" style="fill:none;stroke:#000000;stroke-linecap:square;stroke-width:2;"/>
   </g>
   <g id="line2d_35">
    <path clip-path="url(#pa3afdb8935)" d="M 158.346467 84.637833 
L 163.728623 93.96 
" style="fill:none;stroke:#000000;stroke-linecap:square;stroke-width:2;"/>
   </g>
   <g id="line2d_36">
    <path clip-path="url(#pa3afdb8935)" d="M 166.419701 98.621084 
L 163.728623 93.96 
" style="fill:none;stroke:#000000;stroke-linecap:square;stroke-width:2;"/>
   </g>
   <g id="line2d_37">
    <path clip-path="url(#pa3afdb8935)" d="M 128.744611 98.621084 
L 131.435689 93.96 
" style="fill:none;stroke:#000000;stroke-linecap:square;stroke-width:2;"/>
   </g>
   <g id="line2d_38">
    <path clip-path="url(#pa3afdb8935)" d="M 136.817844 84.637833 
L 131.435689 93.96 
" style="fill:none;stroke:#000000;stroke-linecap:square;stroke-width:2;"/>
   </g>
   <g id="line2d_39">
    <path clip-path="url(#pa3afdb8935)" d="M 109.907066 65.993499 
L 115.289222 65.993499 
" style="fill:none;stroke:#000000;stroke-linecap:square;stroke-width:2;"/>
   </g>
   <g id="line2d_40">
    <path clip-path="url(#pa3afdb8935)" d="M 126.053533 65.993499 
L 115.289222 65.993499 
" style="fill:none;stroke:#000000;stroke-linecap:square;stroke-width:2;"/>
   </g>
   <g id="line2d_41">
    <path clip-path="url(#pa3afdb8935)" d="M 93.760599 84.637833 
L 99.142755 75.315666 
" style="fill:none;stroke:#000000;stroke-linecap:square;stroke-width:2;"/>
   </g>
   <g id="line2d_42">
    <path clip-path="url(#pa3afdb8935)" d="M 101.833832 70.654582 
L 99.142755 75.315666 
" style="fill:none;stroke:#000000;stroke-linecap:square;stroke-width:2;"/>
   </g>
   <g id="line2d_43">
    <path clip-path="url(#pa3afdb8935)" d="M 94.879259 82.700257 
L 100.820745 92.991212 
" style="fill:none;stroke:#000000;stroke-linecap:square;stroke-width:2;"/>
   </g>
   <g id="line2d_44">
    <path clip-path="url(#pa3afdb8935)" d="M 103.511822 97.652296 
L 100.820745 92.991212 
" style="fill:none;stroke:#000000;stroke-linecap:square;stroke-width:2;"/>
   </g>
   <g id="line2d_45">
    <path clip-path="url(#pa3afdb8935)" d="M 91.523279 84.637833 
L 97.464764 94.928788 
" style="fill:none;stroke:#000000;stroke-linecap:square;stroke-width:2;"/>
   </g>
   <g id="line2d_46">
    <path clip-path="url(#pa3afdb8935)" d="M 100.155842 99.589872 
L 97.464764 94.928788 
" style="fill:none;stroke:#000000;stroke-linecap:square;stroke-width:2;"/>
   </g>
   <g id="line2d_47">
    <path clip-path="url(#pa3afdb8935)" d="M 72.231976 84.637833 
L 82.996287 84.637833 
" style="fill:none;stroke:#000000;stroke-linecap:square;stroke-width:2;"/>
   </g>
   <g id="line2d_48">
    <path clip-path="url(#pa3afdb8935)" d="M 93.760599 84.637833 
L 82.996287 84.637833 
" style="fill:none;stroke:#000000;stroke-linecap:square;stroke-width:2;"/>
   </g>
   <g id="line2d_49">
    <path clip-path="url(#pa3afdb8935)" d="M 61.467665 103.282167 
L 66.84982 93.96 
" style="fill:none;stroke:#000000;stroke-linecap:square;stroke-width:2;"/>
   </g>
   <g id="line2d_50">
    <path clip-path="url(#pa3afdb8935)" d="M 72.231976 84.637833 
L 66.84982 93.96 
" style="fill:none;stroke:#000000;stroke-linecap:square;stroke-width:2;"/>
   </g>
   <g id="line2d_51">
    <path clip-path="url(#pa3afdb8935)" d="M 39.939042 103.282167 
L 50.703353 103.282167 
" style="fill:none;stroke:#000000;stroke-linecap:square;stroke-width:2;"/>
   </g>
   <g id="line2d_52">
    <path clip-path="url(#pa3afdb8935)" d="M 61.467665 103.282167 
L 50.703353 103.282167 
" style="fill:none;stroke:#000000;stroke-linecap:square;stroke-width:2;"/>
   </g>
   <g id="line2d_53">
    <path clip-path="url(#pa3afdb8935)" d="M 31.865808 117.265418 
L 34.556886 112.604334 
" style="fill:none;stroke:#000000;stroke-linecap:square;stroke-width:2;"/>
   </g>
   <g id="line2d_54">
    <path clip-path="url(#pa3afdb8935)" d="M 39.939042 103.282167 
L 34.556886 112.604334 
" style="fill:none;stroke:#000000;stroke-linecap:square;stroke-width:2;"/>
   </g>
   <g id="line2d_55">
    <path clip-path="url(#pa3afdb8935)" d="M 64.654729 74.097091 
L 66.892049 72.805374 
" style="fill:none;stroke:#000000;stroke-linecap:square;stroke-width:2;"/>
   </g>
   <g id="line2d_56">
    <path clip-path="url(#pa3afdb8935)" d="M 72.231976 84.637833 
L 72.231976 84.637833 
" style="fill:none;stroke:#000000;stroke-linecap:square;stroke-width:2;"/>
   </g>
   <g id="line2d_57">
    <path clip-path="url(#pa3afdb8935)" d="M 69.706227 81.124252 
L 70.452001 80.69368 
" style="fill:none;stroke:#000000;stroke-linecap:square;stroke-width:2;"/>
   </g>
   <g id="line2d_58">
    <path clip-path="url(#pa3afdb8935)" d="M 67.180478 77.610672 
L 68.672025 76.749527 
" style="fill:none;stroke:#000000;stroke-linecap:square;stroke-width:2;"/>
   </g>
   <g id="line2d_59">
    <path clip-path="url(#pa3afdb8935)" d="M 158.346467 47.349165 
L 163.728623 38.026997 
" style="fill:none;stroke:#000000;stroke-linecap:square;stroke-width:2;"/>
   </g>
   <g id="line2d_60">
    <path clip-path="url(#pa3afdb8935)" d="M 166.419701 33.365914 
L 163.728623 38.026997 
" style="fill:none;stroke:#000000;stroke-linecap:square;stroke-width:2;"/>
   </g>
   <g id="line2d_61">
    <path clip-path="url(#pa3afdb8935)" d="M 222.932335 84.637833 
L 228.314491 75.315666 
" style="fill:none;stroke:#000000;stroke-linecap:square;stroke-width:2;"/>
   </g>
   <g id="line2d_62">
    <path clip-path="url(#pa3afdb8935)" d="M 231.005569 70.654582 
L 228.314491 75.315666 
" style="fill:none;stroke:#000000;stroke-linecap:square;stroke-width:2;"/>
   </g>
   <g id="line2d_63">
    <path clip-path="url(#pa3afdb8935)" d="M 233.696647 103.282167 
L 244.460958 103.282167 
" style="fill:none;stroke:#000000;stroke-linecap:square;stroke-width:2;"/>
   </g>
   <g id="line2d_64">
    <path clip-path="url(#pa3afdb8935)" d="M 249.843114 103.282167 
L 244.460958 103.282167 
" style="fill:none;stroke:#000000;stroke-linecap:square;stroke-width:2;"/>
   </g>
   <g id="line2d_65">
    <path clip-path="url(#pa3afdb8935)" d="M 222.932335 121.926501 
L 228.314491 131.248668 
" style="fill:none;stroke:#000000;stroke-linecap:square;stroke-width:2;"/>
   </g>
   <g id="line2d_66">
    <path clip-path="url(#pa3afdb8935)" d="M 231.005569 135.909752 
L 228.314491 131.248668 
" style="fill:none;stroke:#000000;stroke-linecap:square;stroke-width:2;"/>
   </g>
   <g id="text_1">
    <!-- N -->
    <g transform="translate(165.370153 143.33021)scale(0.1 -0.1)">
     <defs>
      <path d="M 628 4666 
L 1478 4666 
L 3547 763 
L 3547 4666 
L 4159 4666 
L 4159 0 
L 3309 0 
L 1241 3903 
L 1241 0 
L 628 0 
L 628 4666 
z
" id="DejaVuSans-4e" transform="scale(0.015625)"/>
     </defs>
     <use xlink:href="#DejaVuSans-4e"/>
    </g>
   </g>
   <g id="text_2">
    <!-- H -->
    <g transform="translate(165.350622 134.718761)scale(0.1 -0.1)">
     <defs>
      <path d="M 628 4666 
L 1259 4666 
L 1259 2753 
L 3553 2753 
L 3553 4666 
L 4184 4666 
L 4184 0 
L 3553 0 
L 3553 2222 
L 1259 2222 
L 1259 0 
L 628 0 
L 628 4666 
z
" id="DejaVuSans-48" transform="scale(0.015625)"/>
     </defs>
     <use xlink:href="#DejaVuSans-48"/>
    </g>
   </g>
   <g id="text_3">
    <!-- O -->
    <g transform="translate(186.703464 106.041542)scale(0.1 -0.1)">
     <defs>
      <path d="M 2522 4238 
Q 1834 4238 1429 3725 
Q 1025 3213 1025 2328 
Q 1025 1447 1429 934 
Q 1834 422 2522 422 
Q 3209 422 3611 934 
Q 4013 1447 4013 2328 
Q 4013 3213 3611 3725 
Q 3209 4238 2522 4238 
z
M 2522 4750 
Q 3503 4750 4090 4092 
Q 4678 3434 4678 2328 
Q 4678 1225 4090 567 
Q 3503 -91 2522 -91 
Q 1538 -91 948 565 
Q 359 1222 359 2328 
Q 359 3434 948 4092 
Q 1538 4750 2522 4750 
z
" id="DejaVuSans-4f" transform="scale(0.015625)"/>
     </defs>
     <use xlink:href="#DejaVuSans-4f"/>
    </g>
   </g>
   <g id="text_4">
    <!-- O -->
    <g transform="translate(186.703464 68.752874)scale(0.1 -0.1)">
     <use xlink:href="#DejaVuSans-4f"/>
    </g>
   </g>
   <g id="text_5">
    <!-- OH -->
    <g transform="translate(164.805054 106.041542)scale(0.1 -0.1)">
     <use xlink:href="#DejaVuSans-4f"/>
     <use x="78.710938" xlink:href="#DejaVuSans-48"/>
    </g>
   </g>
   <g id="text_6">
    <!-- HO -->
    <g transform="translate(114.96707 106.041542)scale(0.1 -0.1)">
     <use xlink:href="#DejaVuSans-48"/>
     <use x="75.195312" xlink:href="#DejaVuSans-4f"/>
    </g>
   </g>
   <g id="text_7">
    <!-- N -->
    <g transform="translate(100.784285 68.752874)scale(0.1 -0.1)">
     <use xlink:href="#DejaVuSans-4e"/>
    </g>
   </g>
   <g id="text_8">
    <!-- H -->
    <g transform="translate(100.764754 60.141425)scale(0.1 -0.1)">
     <use xlink:href="#DejaVuSans-48"/>
    </g>
   </g>
   <g id="text_9">
    <!-- O -->
    <g transform="translate(100.588973 106.041542)scale(0.1 -0.1)">
     <use xlink:href="#DejaVuSans-4f"/>
    </g>
   </g>
   <g id="text_10">
    <!-- $H_2N$ -->
    <g transform="translate(13.580455 124.685876)scale(0.1 -0.1)">
     <defs>
      <path d="M 1228 531 
L 3431 531 
L 3431 0 
L 469 0 
L 469 531 
Q 828 903 1448 1529 
Q 2069 2156 2228 2338 
Q 2531 2678 2651 2914 
Q 2772 3150 2772 3378 
Q 2772 3750 2511 3984 
Q 2250 4219 1831 4219 
Q 1534 4219 1204 4116 
Q 875 4013 500 3803 
L 500 4441 
Q 881 4594 1212 4672 
Q 1544 4750 1819 4750 
Q 2544 4750 2975 4387 
Q 3406 4025 3406 3419 
Q 3406 3131 3298 2873 
Q 3191 2616 2906 2266 
Q 2828 2175 2409 1742 
Q 1991 1309 1228 531 
z
" id="DejaVuSans-32" transform="scale(0.015625)"/>
     </defs>
     <use transform="translate(0 0.09375)" xlink:href="#DejaVuSans-48"/>
     <use transform="translate(76.152344 -16.3125)scale(0.7)" xlink:href="#DejaVuSans-32"/>
     <use transform="translate(123.422852 0.09375)" xlink:href="#DejaVuSans-4e"/>
    </g>
   </g>
   <g id="text_11">
    <!-- HO -->
    <g transform="translate(50.381202 68.752874)scale(0.1 -0.1)">
     <use xlink:href="#DejaVuSans-48"/>
     <use x="75.195312" xlink:href="#DejaVuSans-4f"/>
    </g>
   </g>
   <g id="text_12">
    <!-- $NH_2$ -->
    <g transform="translate(164.805054 31.464205)scale(0.1 -0.1)">
     <use transform="translate(0 0.09375)" xlink:href="#DejaVuSans-4e"/>
     <use transform="translate(74.804688 0.09375)" xlink:href="#DejaVuSans-48"/>
     <use transform="translate(150.957031 -16.3125)scale(0.7)" xlink:href="#DejaVuSans-32"/>
    </g>
   </g>
   <g id="text_13">
    <!-- $NH_2$ -->
    <g transform="translate(229.390922 68.752874)scale(0.1 -0.1)">
     <use transform="translate(0 0.09375)" xlink:href="#DejaVuSans-4e"/>
     <use transform="translate(74.804688 0.09375)" xlink:href="#DejaVuSans-48"/>
     <use transform="translate(150.957031 -16.3125)scale(0.7)" xlink:href="#DejaVuSans-32"/>
    </g>
   </g>
   <g id="text_14">
    <!-- OH -->
    <g transform="translate(250.919545 106.041542)scale(0.1 -0.1)">
     <use xlink:href="#DejaVuSans-4f"/>
     <use x="78.710938" xlink:href="#DejaVuSans-48"/>
    </g>
   </g>
   <g id="text_15">
    <!-- OH -->
    <g transform="translate(229.390922 143.33021)scale(0.1 -0.1)">
     <use xlink:href="#DejaVuSans-4f"/>
     <use x="78.710938" xlink:href="#DejaVuSans-48"/>
    </g>
   </g>
  </g>
 </g>
 <defs>
  <clipPath id="pa3afdb8935">
   <rect height="187.92" width="283.460199" x="0.4699" y="0"/>
  </clipPath>
 </defs>
</svg>
