<?xml version="1.0" encoding="utf-8" standalone="no"?>
<!DOCTYPE svg PUBLIC "-//W3C//DTD SVG 1.1//EN"
  "http://www.w3.org/Graphics/SVG/1.1/DTD/svg11.dtd">
<svg height="720pt" version="1.1" viewBox="0 0 720 720" width="720pt" xmlns="http://www.w3.org/2000/svg" xmlns:xlink="http://www.w3.org/1999/xlink">
 <metadata>
  <rdf:RDF xmlns:cc="http://creativecommons.org/ns#" xmlns:dc="http://purl.org/dc/elements/1.1/" xmlns:rdf="http://www.w3.org/1999/02/22-rdf-syntax-ns#">
   <cc:Work>
    <dc:type rdf:resource="http://purl.org/dc/dcmitype/StillImage"/>
    <dc:date>2021-11-24T03:03:50.629611</dc:date>
    <dc:format>image/svg+xml</dc:format>
    <dc:creator>
     <cc:Agent>
      <dc:title>Matplotlib v3.4.3, https://matplotlib.org/</dc:title>
     </cc:Agent>
    </dc:creator>
   </cc:Work>
  </rdf:RDF>
 </metadata>
 <defs>
  <style type="text/css">*{stroke-linecap:butt;stroke-linejoin:round;}</style>
 </defs>
 <g id="figure_1">
  <g id="patch_1">
   <path d="M 0 720 
L 720 720 
L 720 0 
L 0 0 
z
" style="fill:#ffffff;"/>
  </g>
  <g id="axes_1">
   <g id="patch_2">
    <path clip-path="url(#p3b0bce846d)" d="M 351.677579 192.551557 
L 341.448336 206.630902 
L 361.604828 215.89762 
L 366.719449 208.857947 
z
" style="stroke:#000000;stroke-linejoin:miter;"/>
   </g>
   <g id="patch_3">
    <path clip-path="url(#p3b0bce846d)" d="M 399.360502 237.950891 
L 366.719449 208.857947 
L 361.604828 215.89762 
z
" style="stroke:#000000;stroke-linejoin:miter;"/>
   </g>
   <g id="line2d_1">
    <path clip-path="url(#p3b0bce846d)" d="M 221.896703 603.979815 
L 265.165933 599.432036 
" style="fill:none;stroke:#000000;stroke-linecap:square;stroke-width:7.132978;"/>
   </g>
   <g id="line2d_2">
    <path clip-path="url(#p3b0bce846d)" d="M 308.435164 594.884256 
L 265.165933 599.432036 
" style="fill:none;stroke:#000000;stroke-linecap:square;stroke-width:7.132978;"/>
   </g>
   <g id="line2d_3">
    <path clip-path="url(#p3b0bce846d)" d="M 228.913348 587.493336 
L 263.528733 583.855113 
" style="fill:none;stroke:#000000;stroke-linecap:square;stroke-width:7.132978;"/>
   </g>
   <g id="line2d_4">
    <path clip-path="url(#p3b0bce846d)" d="M 298.144117 580.216889 
L 263.528733 583.855113 
" style="fill:none;stroke:#000000;stroke-linecap:square;stroke-width:7.132978;"/>
   </g>
   <g id="line2d_5">
    <path clip-path="url(#p3b0bce846d)" d="M 170.750488 533.583089 
L 196.323595 568.781452 
" style="fill:none;stroke:#000000;stroke-linecap:square;stroke-width:7.132978;"/>
   </g>
   <g id="line2d_6">
    <path clip-path="url(#p3b0bce846d)" d="M 221.896703 603.979815 
L 196.323595 568.781452 
" style="fill:none;stroke:#000000;stroke-linecap:square;stroke-width:7.132978;"/>
   </g>
   <g id="line2d_7">
    <path clip-path="url(#p3b0bce846d)" d="M 170.750488 533.583089 
L 188.44661 493.836947 
" style="fill:none;stroke:#000000;stroke-linecap:square;stroke-width:7.132978;"/>
   </g>
   <g id="line2d_8">
    <path clip-path="url(#p3b0bce846d)" d="M 206.142733 454.090805 
L 188.44661 493.836947 
" style="fill:none;stroke:#000000;stroke-linecap:square;stroke-width:7.132978;"/>
   </g>
   <g id="line2d_9">
    <path clip-path="url(#p3b0bce846d)" d="M 188.598324 532.004465 
L 202.755222 500.207551 
" style="fill:none;stroke:#000000;stroke-linecap:square;stroke-width:7.132978;"/>
   </g>
   <g id="line2d_10">
    <path clip-path="url(#p3b0bce846d)" d="M 216.91212 468.410637 
L 202.755222 500.207551 
" style="fill:none;stroke:#000000;stroke-linecap:square;stroke-width:7.132978;"/>
   </g>
   <g id="line2d_11">
    <path clip-path="url(#p3b0bce846d)" d="M 206.142733 454.090805 
L 249.411963 449.543025 
" style="fill:none;stroke:#000000;stroke-linecap:square;stroke-width:7.132978;"/>
   </g>
   <g id="line2d_12">
    <path clip-path="url(#p3b0bce846d)" d="M 292.681194 444.995246 
L 249.411963 449.543025 
" style="fill:none;stroke:#000000;stroke-linecap:square;stroke-width:7.132978;"/>
   </g>
   <g id="line2d_13">
    <path clip-path="url(#p3b0bce846d)" d="M 292.681194 444.995246 
L 318.254301 480.193609 
" style="fill:none;stroke:#000000;stroke-linecap:square;stroke-width:7.132978;"/>
   </g>
   <g id="line2d_14">
    <path clip-path="url(#p3b0bce846d)" d="M 343.827409 515.391972 
L 318.254301 480.193609 
" style="fill:none;stroke:#000000;stroke-linecap:square;stroke-width:7.132978;"/>
   </g>
   <g id="line2d_15">
    <path clip-path="url(#p3b0bce846d)" d="M 285.124405 461.241237 
L 305.582891 489.399928 
" style="fill:none;stroke:#000000;stroke-linecap:square;stroke-width:7.132978;"/>
   </g>
   <g id="line2d_16">
    <path clip-path="url(#p3b0bce846d)" d="M 326.041377 517.558618 
L 305.582891 489.399928 
" style="fill:none;stroke:#000000;stroke-linecap:square;stroke-width:7.132978;"/>
   </g>
   <g id="line2d_17">
    <path clip-path="url(#p3b0bce846d)" d="M 308.435164 594.884256 
L 326.131286 555.138114 
" style="fill:none;stroke:#000000;stroke-linecap:square;stroke-width:7.132978;"/>
   </g>
   <g id="line2d_18">
    <path clip-path="url(#p3b0bce846d)" d="M 343.827409 515.391972 
L 326.131286 555.138114 
" style="fill:none;stroke:#000000;stroke-linecap:square;stroke-width:7.132978;"/>
   </g>
   <g id="line2d_19">
    <path clip-path="url(#p3b0bce846d)" d="M 292.681194 444.995246 
L 301.726926 402.438421 
" style="fill:none;stroke:#000000;stroke-linecap:square;stroke-width:7.132978;"/>
   </g>
   <g id="line2d_20">
    <path clip-path="url(#p3b0bce846d)" d="M 310.772658 359.881597 
L 301.726926 402.438421 
" style="fill:none;stroke:#000000;stroke-linecap:square;stroke-width:7.132978;"/>
   </g>
   <g id="line2d_21">
    <path clip-path="url(#p3b0bce846d)" d="M 235.415338 316.374027 
L 273.093998 338.127812 
" style="fill:none;stroke:#000000;stroke-linecap:square;stroke-width:7.132978;"/>
   </g>
   <g id="line2d_22">
    <path clip-path="url(#p3b0bce846d)" d="M 310.772658 359.881597 
L 273.093998 338.127812 
" style="fill:none;stroke:#000000;stroke-linecap:square;stroke-width:7.132978;"/>
   </g>
   <g id="line2d_23">
    <path clip-path="url(#p3b0bce846d)" d="M 235.119707 334.289102 
L 265.262636 351.69213 
" style="fill:none;stroke:#000000;stroke-linecap:square;stroke-width:7.132978;"/>
   </g>
   <g id="line2d_24">
    <path clip-path="url(#p3b0bce846d)" d="M 295.405564 369.095158 
L 265.262636 351.69213 
" style="fill:none;stroke:#000000;stroke-linecap:square;stroke-width:7.132978;"/>
   </g>
   <g id="line2d_25">
    <path clip-path="url(#p3b0bce846d)" d="M 186.9167 360.042397 
L 203.082913 345.486274 
" style="fill:none;stroke:#000000;stroke-linecap:square;stroke-width:7.132978;"/>
   </g>
   <g id="line2d_26">
    <path clip-path="url(#p3b0bce846d)" d="M 235.415338 316.374027 
L 203.082913 345.486274 
" style="fill:none;stroke:#000000;stroke-linecap:square;stroke-width:7.132978;"/>
   </g>
   <g id="line2d_27">
    <path clip-path="url(#p3b0bce846d)" d="M 179.598549 394.471591 
L 188.44661 414.344662 
" style="fill:none;stroke:#000000;stroke-linecap:square;stroke-width:7.132978;"/>
   </g>
   <g id="line2d_28">
    <path clip-path="url(#p3b0bce846d)" d="M 206.142733 454.090805 
L 188.44661 414.344662 
" style="fill:none;stroke:#000000;stroke-linecap:square;stroke-width:7.132978;"/>
   </g>
   <g id="line2d_29">
    <path clip-path="url(#p3b0bce846d)" d="M 310.772658 359.881597 
L 350.518801 342.185474 
" style="fill:none;stroke:#000000;stroke-linecap:square;stroke-width:7.132978;"/>
   </g>
   <g id="line2d_30">
    <path clip-path="url(#p3b0bce846d)" d="M 390.264943 324.489351 
L 350.518801 342.185474 
" style="fill:none;stroke:#000000;stroke-linecap:square;stroke-width:7.132978;"/>
   </g>
   <g id="line2d_31">
    <path clip-path="url(#p3b0bce846d)" d="M 390.264943 324.489351 
L 394.812722 281.220121 
" style="fill:none;stroke:#000000;stroke-linecap:square;stroke-width:7.132978;"/>
   </g>
   <g id="line2d_32">
    <path clip-path="url(#p3b0bce846d)" d="M 399.360502 237.950891 
L 394.812722 281.220121 
" style="fill:none;stroke:#000000;stroke-linecap:square;stroke-width:7.132978;"/>
   </g>
   <g id="line2d_33">
    <path clip-path="url(#p3b0bce846d)" d="M 399.360502 237.950891 
L 439.106644 220.254768 
" style="fill:none;stroke:#000000;stroke-linecap:square;stroke-width:7.132978;"/>
   </g>
   <g id="line2d_34">
    <path clip-path="url(#p3b0bce846d)" d="M 478.852786 202.558645 
L 439.106644 220.254768 
" style="fill:none;stroke:#000000;stroke-linecap:square;stroke-width:7.132978;"/>
   </g>
   <g id="line2d_35">
    <path clip-path="url(#p3b0bce846d)" d="M 486.168629 207.873916 
L 491.189027 160.108015 
" style="fill:none;stroke:#000000;stroke-linecap:square;stroke-width:7.132978;"/>
   </g>
   <g id="line2d_36">
    <path clip-path="url(#p3b0bce846d)" d="M 493.008139 142.800323 
L 491.189027 160.108015 
" style="fill:none;stroke:#000000;stroke-linecap:square;stroke-width:7.132978;"/>
   </g>
   <g id="line2d_37">
    <path clip-path="url(#p3b0bce846d)" d="M 470.591706 206.236715 
L 475.612104 158.470815 
" style="fill:none;stroke:#000000;stroke-linecap:square;stroke-width:7.132978;"/>
   </g>
   <g id="line2d_38">
    <path clip-path="url(#p3b0bce846d)" d="M 477.431216 141.163123 
L 475.612104 158.470815 
" style="fill:none;stroke:#000000;stroke-linecap:square;stroke-width:7.132978;"/>
   </g>
   <g id="line2d_39">
    <path clip-path="url(#p3b0bce846d)" d="M 478.852786 202.558645 
L 514.051149 228.131753 
" style="fill:none;stroke:#000000;stroke-linecap:square;stroke-width:7.132978;"/>
   </g>
   <g id="line2d_40">
    <path clip-path="url(#p3b0bce846d)" d="M 531.650331 240.918307 
L 514.051149 228.131753 
" style="fill:none;stroke:#000000;stroke-linecap:square;stroke-width:7.132978;"/>
   </g>
   <g id="text_1">
    <!-- HN -->
    <g transform="translate(125.733452 386.080015)scale(0.41609 -0.41609)">
     <defs>
      <path d="M 628 4666 
L 1259 4666 
L 1259 2753 
L 3553 2753 
L 3553 4666 
L 4184 4666 
L 4184 0 
L 3553 0 
L 3553 2222 
L 1259 2222 
L 1259 0 
L 628 0 
L 628 4666 
z
" id="DejaVuSans-48" transform="scale(0.015625)"/>
      <path d="M 628 4666 
L 1478 4666 
L 3547 763 
L 3547 4666 
L 4159 4666 
L 4159 0 
L 3309 0 
L 1241 3903 
L 1241 0 
L 628 0 
L 628 4666 
z
" id="DejaVuSans-4e" transform="scale(0.015625)"/>
     </defs>
     <use xlink:href="#DejaVuSans-48"/>
     <use x="75.195312" xlink:href="#DejaVuSans-4e"/>
    </g>
   </g>
   <g id="text_2">
    <!-- O -->
    <g transform="translate(471.571287 127.50168)scale(0.41609 -0.41609)">
     <defs>
      <path d="M 2522 4238 
Q 1834 4238 1429 3725 
Q 1025 3213 1025 2328 
Q 1025 1447 1429 934 
Q 1834 422 2522 422 
Q 3209 422 3611 934 
Q 4013 1447 4013 2328 
Q 4013 3213 3611 3725 
Q 3209 4238 2522 4238 
z
M 2522 4750 
Q 3503 4750 4090 4092 
Q 4678 3434 4678 2328 
Q 4678 1225 4090 567 
Q 3503 -91 2522 -91 
Q 1538 -91 948 565 
Q 359 1222 359 2328 
Q 359 3434 948 4092 
Q 1538 4750 2522 4750 
z
" id="DejaVuSans-4f" transform="scale(0.015625)"/>
     </defs>
     <use xlink:href="#DejaVuSans-4f"/>
    </g>
   </g>
   <g id="text_3">
    <!-- OH -->
    <g transform="translate(531.846485 265.186355)scale(0.41609 -0.41609)">
     <use xlink:href="#DejaVuSans-4f"/>
     <use x="78.710938" xlink:href="#DejaVuSans-48"/>
    </g>
   </g>
   <g id="text_4">
    <!-- $H_2N$ -->
    <g transform="translate(263.564812 198.28617)scale(0.41609 -0.41609)">
     <defs>
      <path d="M 1228 531 
L 3431 531 
L 3431 0 
L 469 0 
L 469 531 
Q 828 903 1448 1529 
Q 2069 2156 2228 2338 
Q 2531 2678 2651 2914 
Q 2772 3150 2772 3378 
Q 2772 3750 2511 3984 
Q 2250 4219 1831 4219 
Q 1534 4219 1204 4116 
Q 875 4013 500 3803 
L 500 4441 
Q 881 4594 1212 4672 
Q 1544 4750 1819 4750 
Q 2544 4750 2975 4387 
Q 3406 4025 3406 3419 
Q 3406 3131 3298 2873 
Q 3191 2616 2906 2266 
Q 2828 2175 2409 1742 
Q 1991 1309 1228 531 
z
" id="DejaVuSans-32" transform="scale(0.015625)"/>
     </defs>
     <use transform="translate(0 0.09375)" xlink:href="#DejaVuSans-48"/>
     <use transform="translate(76.152344 -16.3125)scale(0.7)" xlink:href="#DejaVuSans-32"/>
     <use transform="translate(123.422852 0.09375)" xlink:href="#DejaVuSans-4e"/>
    </g>
   </g>
  </g>
 </g>
 <defs>
  <clipPath id="p3b0bce846d">
   <rect height="720" width="610.539394" x="54.730303" y="0"/>
  </clipPath>
 </defs>
</svg>
