<?xml version="1.0" encoding="utf-8" standalone="no"?>
<!DOCTYPE svg PUBLIC "-//W3C//DTD SVG 1.1//EN"
  "http://www.w3.org/Graphics/SVG/1.1/DTD/svg11.dtd">
<svg height="720pt" version="1.1" viewBox="0 0 720 720" width="720pt" xmlns="http://www.w3.org/2000/svg" xmlns:xlink="http://www.w3.org/1999/xlink">
 <metadata>
  <rdf:RDF xmlns:cc="http://creativecommons.org/ns#" xmlns:dc="http://purl.org/dc/elements/1.1/" xmlns:rdf="http://www.w3.org/1999/02/22-rdf-syntax-ns#">
   <cc:Work>
    <dc:type rdf:resource="http://purl.org/dc/dcmitype/StillImage"/>
    <dc:date>2021-11-24T03:03:50.253352</dc:date>
    <dc:format>image/svg+xml</dc:format>
    <dc:creator>
     <cc:Agent>
      <dc:title>Matplotlib v3.4.3, https://matplotlib.org/</dc:title>
     </cc:Agent>
    </dc:creator>
   </cc:Work>
  </rdf:RDF>
 </metadata>
 <defs>
  <style type="text/css">*{stroke-linecap:butt;stroke-linejoin:round;}</style>
 </defs>
 <g id="figure_1">
  <g id="patch_1">
   <path d="M 0 720 
L 720 720 
L 720 0 
L 0 0 
z
" style="fill:#ffffff;"/>
  </g>
  <g id="axes_1">
   <g id="patch_2">
    <path clip-path="url(#pf8562cdad8)" d="M 265.720559 319.278858 
L 298.859505 289.135936 
L 292.234392 283.170658 
z
" style="stroke:#000000;stroke-linejoin:miter;"/>
   </g>
   <g id="patch_3">
    <path clip-path="url(#pf8562cdad8)" d="M 317.085255 275.555795 
L 303.835031 263.625239 
L 292.234392 283.170658 
L 298.859505 289.135936 
z
" style="stroke:#000000;stroke-linejoin:miter;"/>
   </g>
   <g id="line2d_1">
    <path clip-path="url(#pf8562cdad8)" d="M 416.731309 504.042784 
L 461.061963 499.383445 
" style="fill:none;stroke:#000000;stroke-linecap:square;stroke-width:12.378222;"/>
   </g>
   <g id="line2d_2">
    <path clip-path="url(#pf8562cdad8)" d="M 483.22729 497.053775 
L 461.061963 499.383445 
" style="fill:none;stroke:#000000;stroke-linecap:square;stroke-width:12.378222;"/>
   </g>
   <g id="line2d_3">
    <path clip-path="url(#pf8562cdad8)" d="M 510.026431 472.92372 
L 514.660246 451.123334 
" style="fill:none;stroke:#000000;stroke-linecap:square;stroke-width:12.378222;"/>
   </g>
   <g id="line2d_4">
    <path clip-path="url(#pf8562cdad8)" d="M 523.927877 407.522562 
L 514.660246 451.123334 
" style="fill:none;stroke:#000000;stroke-linecap:square;stroke-width:12.378222;"/>
   </g>
   <g id="line2d_5">
    <path clip-path="url(#pf8562cdad8)" d="M 523.927877 407.522562 
L 562.53082 385.235142 
" style="fill:none;stroke:#000000;stroke-linecap:square;stroke-width:12.378222;"/>
   </g>
   <g id="line2d_6">
    <path clip-path="url(#pf8562cdad8)" d="M 601.133763 362.947723 
L 562.53082 385.235142 
" style="fill:none;stroke:#000000;stroke-linecap:square;stroke-width:12.378222;"/>
   </g>
   <g id="line2d_7">
    <path clip-path="url(#pf8562cdad8)" d="M 523.624994 389.168018 
L 554.507349 371.338083 
" style="fill:none;stroke:#000000;stroke-linecap:square;stroke-width:12.378222;"/>
   </g>
   <g id="line2d_8">
    <path clip-path="url(#pf8562cdad8)" d="M 585.389703 353.508147 
L 554.507349 371.338083 
" style="fill:none;stroke:#000000;stroke-linecap:square;stroke-width:12.378222;"/>
   </g>
   <g id="line2d_9">
    <path clip-path="url(#pf8562cdad8)" d="M 601.133763 362.947723 
L 601.133763 318.372884 
" style="fill:none;stroke:#000000;stroke-linecap:square;stroke-width:12.378222;"/>
   </g>
   <g id="line2d_10">
    <path clip-path="url(#pf8562cdad8)" d="M 601.133763 273.798045 
L 601.133763 318.372884 
" style="fill:none;stroke:#000000;stroke-linecap:square;stroke-width:12.378222;"/>
   </g>
   <g id="line2d_11">
    <path clip-path="url(#pf8562cdad8)" d="M 523.927877 229.223206 
L 562.53082 251.510625 
" style="fill:none;stroke:#000000;stroke-linecap:square;stroke-width:12.378222;"/>
   </g>
   <g id="line2d_12">
    <path clip-path="url(#pf8562cdad8)" d="M 601.133763 273.798045 
L 562.53082 251.510625 
" style="fill:none;stroke:#000000;stroke-linecap:square;stroke-width:12.378222;"/>
   </g>
   <g id="line2d_13">
    <path clip-path="url(#pf8562cdad8)" d="M 523.624994 247.577749 
L 554.507349 265.407685 
" style="fill:none;stroke:#000000;stroke-linecap:square;stroke-width:12.378222;"/>
   </g>
   <g id="line2d_14">
    <path clip-path="url(#pf8562cdad8)" d="M 585.389703 283.23762 
L 554.507349 265.407685 
" style="fill:none;stroke:#000000;stroke-linecap:square;stroke-width:12.378222;"/>
   </g>
   <g id="line2d_15">
    <path clip-path="url(#pf8562cdad8)" d="M 446.721991 273.798045 
L 485.324934 251.510625 
" style="fill:none;stroke:#000000;stroke-linecap:square;stroke-width:12.378222;"/>
   </g>
   <g id="line2d_16">
    <path clip-path="url(#pf8562cdad8)" d="M 523.927877 229.223206 
L 485.324934 251.510625 
" style="fill:none;stroke:#000000;stroke-linecap:square;stroke-width:12.378222;"/>
   </g>
   <g id="line2d_17">
    <path clip-path="url(#pf8562cdad8)" d="M 446.721991 273.798045 
L 446.721991 318.372884 
" style="fill:none;stroke:#000000;stroke-linecap:square;stroke-width:12.378222;"/>
   </g>
   <g id="line2d_18">
    <path clip-path="url(#pf8562cdad8)" d="M 446.721991 362.947723 
L 446.721991 318.372884 
" style="fill:none;stroke:#000000;stroke-linecap:square;stroke-width:12.378222;"/>
   </g>
   <g id="line2d_19">
    <path clip-path="url(#pf8562cdad8)" d="M 462.768933 282.713012 
L 462.768933 318.372884 
" style="fill:none;stroke:#000000;stroke-linecap:square;stroke-width:12.378222;"/>
   </g>
   <g id="line2d_20">
    <path clip-path="url(#pf8562cdad8)" d="M 462.768933 354.032755 
L 462.768933 318.372884 
" style="fill:none;stroke:#000000;stroke-linecap:square;stroke-width:12.378222;"/>
   </g>
   <g id="line2d_21">
    <path clip-path="url(#pf8562cdad8)" d="M 446.721991 362.947723 
L 485.324934 385.235142 
" style="fill:none;stroke:#000000;stroke-linecap:square;stroke-width:12.378222;"/>
   </g>
   <g id="line2d_22">
    <path clip-path="url(#pf8562cdad8)" d="M 523.927877 407.522562 
L 485.324934 385.235142 
" style="fill:none;stroke:#000000;stroke-linecap:square;stroke-width:12.378222;"/>
   </g>
   <g id="line2d_23">
    <path clip-path="url(#pf8562cdad8)" d="M 380.470869 422.600501 
L 413.59643 392.774112 
" style="fill:none;stroke:#000000;stroke-linecap:square;stroke-width:12.378222;"/>
   </g>
   <g id="line2d_24">
    <path clip-path="url(#pf8562cdad8)" d="M 446.721991 362.947723 
L 413.59643 392.774112 
" style="fill:none;stroke:#000000;stroke-linecap:square;stroke-width:12.378222;"/>
   </g>
   <g id="line2d_25">
    <path clip-path="url(#pf8562cdad8)" d="M 380.470869 422.600501 
L 398.601089 463.321643 
" style="fill:none;stroke:#000000;stroke-linecap:square;stroke-width:12.378222;"/>
   </g>
   <g id="line2d_26">
    <path clip-path="url(#pf8562cdad8)" d="M 416.731309 504.042784 
L 398.601089 463.321643 
" style="fill:none;stroke:#000000;stroke-linecap:square;stroke-width:12.378222;"/>
   </g>
   <g id="line2d_27">
    <path clip-path="url(#pf8562cdad8)" d="M 398.756524 424.21785 
L 413.2607 456.794763 
" style="fill:none;stroke:#000000;stroke-linecap:square;stroke-width:12.378222;"/>
   </g>
   <g id="line2d_28">
    <path clip-path="url(#pf8562cdad8)" d="M 427.764876 489.371677 
L 413.2607 456.794763 
" style="fill:none;stroke:#000000;stroke-linecap:square;stroke-width:12.378222;"/>
   </g>
   <g id="line2d_29">
    <path clip-path="url(#pf8562cdad8)" d="M 293.269325 404.065241 
L 336.870097 413.332871 
" style="fill:none;stroke:#000000;stroke-linecap:square;stroke-width:12.378222;"/>
   </g>
   <g id="line2d_30">
    <path clip-path="url(#pf8562cdad8)" d="M 380.470869 422.600501 
L 336.870097 413.332871 
" style="fill:none;stroke:#000000;stroke-linecap:square;stroke-width:12.378222;"/>
   </g>
   <g id="line2d_31">
    <path clip-path="url(#pf8562cdad8)" d="M 265.720559 319.278858 
L 279.494942 361.672049 
" style="fill:none;stroke:#000000;stroke-linecap:square;stroke-width:12.378222;"/>
   </g>
   <g id="line2d_32">
    <path clip-path="url(#pf8562cdad8)" d="M 293.269325 404.065241 
L 279.494942 361.672049 
" style="fill:none;stroke:#000000;stroke-linecap:square;stroke-width:12.378222;"/>
   </g>
   <g id="line2d_33">
    <path clip-path="url(#pf8562cdad8)" d="M 178.519016 300.743598 
L 222.119787 310.011228 
" style="fill:none;stroke:#000000;stroke-linecap:square;stroke-width:12.378222;"/>
   </g>
   <g id="line2d_34">
    <path clip-path="url(#pf8562cdad8)" d="M 265.720559 319.278858 
L 222.119787 310.011228 
" style="fill:none;stroke:#000000;stroke-linecap:square;stroke-width:12.378222;"/>
   </g>
   <g id="line2d_35">
    <path clip-path="url(#pf8562cdad8)" d="M 166.865654 238.913741 
L 172.375407 255.871018 
" style="fill:none;stroke:#000000;stroke-linecap:square;stroke-width:12.378222;"/>
   </g>
   <g id="line2d_36">
    <path clip-path="url(#pf8562cdad8)" d="M 187.581266 302.669839 
L 172.375407 255.871018 
" style="fill:none;stroke:#000000;stroke-linecap:square;stroke-width:12.378222;"/>
   </g>
   <g id="line2d_37">
    <path clip-path="url(#pf8562cdad8)" d="M 151.604105 243.872519 
L 157.113858 260.829796 
" style="fill:none;stroke:#000000;stroke-linecap:square;stroke-width:12.378222;"/>
   </g>
   <g id="line2d_38">
    <path clip-path="url(#pf8562cdad8)" d="M 172.319717 307.628617 
L 157.113858 260.829796 
" style="fill:none;stroke:#000000;stroke-linecap:square;stroke-width:12.378222;"/>
   </g>
   <g id="line2d_39">
    <path clip-path="url(#pf8562cdad8)" d="M 133.779432 350.431939 
L 148.692627 333.869159 
" style="fill:none;stroke:#000000;stroke-linecap:square;stroke-width:12.378222;"/>
   </g>
   <g id="line2d_40">
    <path clip-path="url(#pf8562cdad8)" d="M 178.519016 300.743598 
L 148.692627 333.869159 
" style="fill:none;stroke:#000000;stroke-linecap:square;stroke-width:12.378222;"/>
   </g>
   <g id="text_1">
    <!-- NH -->
    <g transform="translate(487.562681 514.64853)scale(0.722063 -0.722063)">
     <defs>
      <path d="M 628 4666 
L 1478 4666 
L 3547 763 
L 3547 4666 
L 4159 4666 
L 4159 0 
L 3309 0 
L 1241 3903 
L 1241 0 
L 628 0 
L 628 4666 
z
" id="DejaVuSans-4e" transform="scale(0.015625)"/>
      <path d="M 628 4666 
L 1259 4666 
L 1259 2753 
L 3553 2753 
L 3553 4666 
L 4184 4666 
L 4184 0 
L 3553 0 
L 3553 2222 
L 1259 2222 
L 1259 0 
L 628 0 
L 628 4666 
z
" id="DejaVuSans-48" transform="scale(0.015625)"/>
     </defs>
     <use xlink:href="#DejaVuSans-4e"/>
     <use x="74.804688" xlink:href="#DejaVuSans-48"/>
    </g>
   </g>
   <g id="text_2">
    <!-- $NH_2$ -->
    <g transform="translate(307.543402 272.952161)scale(0.722063 -0.722063)">
     <defs>
      <path d="M 1228 531 
L 3431 531 
L 3431 0 
L 469 0 
L 469 531 
Q 828 903 1448 1529 
Q 2069 2156 2228 2338 
Q 2531 2678 2651 2914 
Q 2772 3150 2772 3378 
Q 2772 3750 2511 3984 
Q 2250 4219 1831 4219 
Q 1534 4219 1204 4116 
Q 875 4013 500 3803 
L 500 4441 
Q 881 4594 1212 4672 
Q 1544 4750 1819 4750 
Q 2544 4750 2975 4387 
Q 3406 4025 3406 3419 
Q 3406 3131 3298 2873 
Q 3191 2616 2906 2266 
Q 2828 2175 2409 1742 
Q 1991 1309 1228 531 
z
" id="DejaVuSans-32" transform="scale(0.015625)"/>
     </defs>
     <use transform="translate(0 0.09375)" xlink:href="#DejaVuSans-4e"/>
     <use transform="translate(74.804688 0.09375)" xlink:href="#DejaVuSans-48"/>
     <use transform="translate(150.957031 -16.3125)scale(0.7)" xlink:href="#DejaVuSans-32"/>
    </g>
   </g>
   <g id="text_3">
    <!-- O -->
    <g transform="translate(122.550304 235.88164)scale(0.722063 -0.722063)">
     <defs>
      <path d="M 2522 4238 
Q 1834 4238 1429 3725 
Q 1025 3213 1025 2328 
Q 1025 1447 1429 934 
Q 1834 422 2522 422 
Q 3209 422 3611 934 
Q 4013 1447 4013 2328 
Q 4013 3213 3611 3725 
Q 3209 4238 2522 4238 
z
M 2522 4750 
Q 3503 4750 4090 4092 
Q 4678 3434 4678 2328 
Q 4678 1225 4090 567 
Q 3503 -91 2522 -91 
Q 1538 -91 948 565 
Q 359 1222 359 2328 
Q 359 3434 948 4092 
Q 1538 4750 2522 4750 
z
" id="DejaVuSans-4f" transform="scale(0.015625)"/>
     </defs>
     <use xlink:href="#DejaVuSans-4f"/>
    </g>
   </g>
   <g id="text_4">
    <!-- HO -->
    <g transform="translate(25.55489 386.919144)scale(0.722063 -0.722063)">
     <use xlink:href="#DejaVuSans-48"/>
     <use x="75.195312" xlink:href="#DejaVuSans-4f"/>
    </g>
   </g>
  </g>
 </g>
 <defs>
  <clipPath id="pf8562cdad8">
   <rect height="525.818044" width="720" x="0" y="97.090978"/>
  </clipPath>
 </defs>
</svg>
