<?xml version="1.0" encoding="utf-8" standalone="no"?>
<!DOCTYPE svg PUBLIC "-//W3C//DTD SVG 1.1//EN"
  "http://www.w3.org/Graphics/SVG/1.1/DTD/svg11.dtd">
<svg height="720pt" version="1.1" viewBox="0 0 720 720" width="720pt" xmlns="http://www.w3.org/2000/svg" xmlns:xlink="http://www.w3.org/1999/xlink">
 <metadata>
  <rdf:RDF xmlns:cc="http://creativecommons.org/ns#" xmlns:dc="http://purl.org/dc/elements/1.1/" xmlns:rdf="http://www.w3.org/1999/02/22-rdf-syntax-ns#">
   <cc:Work>
    <dc:type rdf:resource="http://purl.org/dc/dcmitype/StillImage"/>
    <dc:date>2021-11-24T03:03:50.389358</dc:date>
    <dc:format>image/svg+xml</dc:format>
    <dc:creator>
     <cc:Agent>
      <dc:title>Matplotlib v3.4.3, https://matplotlib.org/</dc:title>
     </cc:Agent>
    </dc:creator>
   </cc:Work>
  </rdf:RDF>
 </metadata>
 <defs>
  <style type="text/css">*{stroke-linecap:butt;stroke-linejoin:round;}</style>
 </defs>
 <g id="figure_1">
  <g id="patch_1">
   <path d="M 0 720 
L 720 720 
L 720 0 
L 0 0 
z
" style="fill:#ffffff;"/>
  </g>
  <g id="axes_1">
   <g id="line2d_1">
    <path clip-path="url(#p0c7d23bf9a)" d="M 273.59409 391.19026 
L 284.657963 410.35345 
" style="fill:none;stroke:#000000;stroke-linecap:square;stroke-width:7.3154;"/>
   </g>
   <g id="line2d_2">
    <path clip-path="url(#p0c7d23bf9a)" d="M 306.78571 448.679831 
L 284.657963 410.35345 
" style="fill:none;stroke:#000000;stroke-linecap:square;stroke-width:7.3154;"/>
   </g>
   <g id="line2d_3">
    <path clip-path="url(#p0c7d23bf9a)" d="M 306.78571 448.679831 
L 351.041202 448.679831 
" style="fill:none;stroke:#000000;stroke-linecap:square;stroke-width:7.3154;"/>
   </g>
   <g id="line2d_4">
    <path clip-path="url(#p0c7d23bf9a)" d="M 395.296694 448.679831 
L 351.041202 448.679831 
" style="fill:none;stroke:#000000;stroke-linecap:square;stroke-width:7.3154;"/>
   </g>
   <g id="line2d_5">
    <path clip-path="url(#p0c7d23bf9a)" d="M 395.296694 448.679831 
L 417.424441 410.35345 
" style="fill:none;stroke:#000000;stroke-linecap:square;stroke-width:7.3154;"/>
   </g>
   <g id="line2d_6">
    <path clip-path="url(#p0c7d23bf9a)" d="M 439.552187 372.027069 
L 417.424441 410.35345 
" style="fill:none;stroke:#000000;stroke-linecap:square;stroke-width:7.3154;"/>
   </g>
   <g id="line2d_7">
    <path clip-path="url(#p0c7d23bf9a)" d="M 439.552187 372.027069 
L 483.565243 367.401111 
" style="fill:none;stroke:#000000;stroke-linecap:square;stroke-width:7.3154;"/>
   </g>
   <g id="line2d_8">
    <path clip-path="url(#p0c7d23bf9a)" d="M 527.578299 362.775152 
L 483.565243 367.401111 
" style="fill:none;stroke:#000000;stroke-linecap:square;stroke-width:7.3154;"/>
   </g>
   <g id="line2d_9">
    <path clip-path="url(#p0c7d23bf9a)" d="M 446.689453 355.257178 
L 481.899898 351.556411 
" style="fill:none;stroke:#000000;stroke-linecap:square;stroke-width:7.3154;"/>
   </g>
   <g id="line2d_10">
    <path clip-path="url(#p0c7d23bf9a)" d="M 517.110343 347.855644 
L 481.899898 351.556411 
" style="fill:none;stroke:#000000;stroke-linecap:square;stroke-width:7.3154;"/>
   </g>
   <g id="line2d_11">
    <path clip-path="url(#p0c7d23bf9a)" d="M 527.578299 362.775152 
L 536.779533 319.486749 
" style="fill:none;stroke:#000000;stroke-linecap:square;stroke-width:7.3154;"/>
   </g>
   <g id="line2d_12">
    <path clip-path="url(#p0c7d23bf9a)" d="M 541.380151 297.842547 
L 536.779533 319.486749 
" style="fill:none;stroke:#000000;stroke-linecap:square;stroke-width:7.3154;"/>
   </g>
   <g id="line2d_13">
    <path clip-path="url(#p0c7d23bf9a)" d="M 469.328006 231.942852 
L 507.654387 254.070599 
" style="fill:none;stroke:#000000;stroke-linecap:square;stroke-width:7.3154;"/>
   </g>
   <g id="line2d_14">
    <path clip-path="url(#p0c7d23bf9a)" d="M 526.817577 265.134472 
L 507.654387 254.070599 
" style="fill:none;stroke:#000000;stroke-linecap:square;stroke-width:7.3154;"/>
   </g>
   <g id="line2d_15">
    <path clip-path="url(#p0c7d23bf9a)" d="M 450.925538 145.366045 
L 460.126772 188.654449 
" style="fill:none;stroke:#000000;stroke-linecap:square;stroke-width:7.3154;"/>
   </g>
   <g id="line2d_16">
    <path clip-path="url(#p0c7d23bf9a)" d="M 469.328006 231.942852 
L 460.126772 188.654449 
" style="fill:none;stroke:#000000;stroke-linecap:square;stroke-width:7.3154;"/>
   </g>
   <g id="line2d_17">
    <path clip-path="url(#p0c7d23bf9a)" d="M 437.181959 157.33617 
L 444.542947 191.966893 
" style="fill:none;stroke:#000000;stroke-linecap:square;stroke-width:7.3154;"/>
   </g>
   <g id="line2d_18">
    <path clip-path="url(#p0c7d23bf9a)" d="M 451.903934 226.597616 
L 444.542947 191.966893 
" style="fill:none;stroke:#000000;stroke-linecap:square;stroke-width:7.3154;"/>
   </g>
   <g id="line2d_19">
    <path clip-path="url(#p0c7d23bf9a)" d="M 366.746589 118.014646 
L 408.836063 131.690346 
" style="fill:none;stroke:#000000;stroke-linecap:square;stroke-width:7.3154;"/>
   </g>
   <g id="line2d_20">
    <path clip-path="url(#p0c7d23bf9a)" d="M 450.925538 145.366045 
L 408.836063 131.690346 
" style="fill:none;stroke:#000000;stroke-linecap:square;stroke-width:7.3154;"/>
   </g>
   <g id="line2d_21">
    <path clip-path="url(#p0c7d23bf9a)" d="M 300.970109 177.240055 
L 333.858349 147.627351 
" style="fill:none;stroke:#000000;stroke-linecap:square;stroke-width:7.3154;"/>
   </g>
   <g id="line2d_22">
    <path clip-path="url(#p0c7d23bf9a)" d="M 366.746589 118.014646 
L 333.858349 147.627351 
" style="fill:none;stroke:#000000;stroke-linecap:square;stroke-width:7.3154;"/>
   </g>
   <g id="line2d_23">
    <path clip-path="url(#p0c7d23bf9a)" d="M 318.20833 183.157281 
L 344.518922 159.467117 
" style="fill:none;stroke:#000000;stroke-linecap:square;stroke-width:7.3154;"/>
   </g>
   <g id="line2d_24">
    <path clip-path="url(#p0c7d23bf9a)" d="M 370.829514 135.776954 
L 344.518922 159.467117 
" style="fill:none;stroke:#000000;stroke-linecap:square;stroke-width:7.3154;"/>
   </g>
   <g id="line2d_25">
    <path clip-path="url(#p0c7d23bf9a)" d="M 300.970109 177.240055 
L 310.171343 220.528459 
" style="fill:none;stroke:#000000;stroke-linecap:square;stroke-width:7.3154;"/>
   </g>
   <g id="line2d_26">
    <path clip-path="url(#p0c7d23bf9a)" d="M 319.372577 263.816863 
L 310.171343 220.528459 
" style="fill:none;stroke:#000000;stroke-linecap:square;stroke-width:7.3154;"/>
   </g>
   <g id="line2d_27">
    <path clip-path="url(#p0c7d23bf9a)" d="M 319.372577 263.816863 
L 361.462052 277.492562 
" style="fill:none;stroke:#000000;stroke-linecap:square;stroke-width:7.3154;"/>
   </g>
   <g id="line2d_28">
    <path clip-path="url(#p0c7d23bf9a)" d="M 403.551526 291.168261 
L 361.462052 277.492562 
" style="fill:none;stroke:#000000;stroke-linecap:square;stroke-width:7.3154;"/>
   </g>
   <g id="line2d_29">
    <path clip-path="url(#p0c7d23bf9a)" d="M 332.713724 251.399792 
L 366.385303 262.340351 
" style="fill:none;stroke:#000000;stroke-linecap:square;stroke-width:7.3154;"/>
   </g>
   <g id="line2d_30">
    <path clip-path="url(#p0c7d23bf9a)" d="M 400.056883 273.280911 
L 366.385303 262.340351 
" style="fill:none;stroke:#000000;stroke-linecap:square;stroke-width:7.3154;"/>
   </g>
   <g id="line2d_31">
    <path clip-path="url(#p0c7d23bf9a)" d="M 403.551526 291.168261 
L 421.551856 331.597665 
" style="fill:none;stroke:#000000;stroke-linecap:square;stroke-width:7.3154;"/>
   </g>
   <g id="line2d_32">
    <path clip-path="url(#p0c7d23bf9a)" d="M 439.552187 372.027069 
L 421.551856 331.597665 
" style="fill:none;stroke:#000000;stroke-linecap:square;stroke-width:7.3154;"/>
   </g>
   <g id="line2d_33">
    <path clip-path="url(#p0c7d23bf9a)" d="M 403.551526 291.168261 
L 436.439766 261.555557 
" style="fill:none;stroke:#000000;stroke-linecap:square;stroke-width:7.3154;"/>
   </g>
   <g id="line2d_34">
    <path clip-path="url(#p0c7d23bf9a)" d="M 469.328006 231.942852 
L 436.439766 261.555557 
" style="fill:none;stroke:#000000;stroke-linecap:square;stroke-width:7.3154;"/>
   </g>
   <g id="line2d_35">
    <path clip-path="url(#p0c7d23bf9a)" d="M 262.530217 525.332592 
L 284.657963 487.006212 
" style="fill:none;stroke:#000000;stroke-linecap:square;stroke-width:7.3154;"/>
   </g>
   <g id="line2d_36">
    <path clip-path="url(#p0c7d23bf9a)" d="M 306.78571 448.679831 
L 284.657963 487.006212 
" style="fill:none;stroke:#000000;stroke-linecap:square;stroke-width:7.3154;"/>
   </g>
   <g id="line2d_37">
    <path clip-path="url(#p0c7d23bf9a)" d="M 196.146979 525.332592 
L 218.274725 525.332592 
" style="fill:none;stroke:#000000;stroke-linecap:square;stroke-width:7.3154;"/>
   </g>
   <g id="line2d_38">
    <path clip-path="url(#p0c7d23bf9a)" d="M 262.530217 525.332592 
L 218.274725 525.332592 
" style="fill:none;stroke:#000000;stroke-linecap:square;stroke-width:7.3154;"/>
   </g>
   <g id="line2d_39">
    <path clip-path="url(#p0c7d23bf9a)" d="M 253.331886 525.332592 
L 277.759215 567.641967 
" style="fill:none;stroke:#000000;stroke-linecap:square;stroke-width:7.3154;"/>
   </g>
   <g id="line2d_40">
    <path clip-path="url(#p0c7d23bf9a)" d="M 286.610313 582.972519 
L 277.759215 567.641967 
" style="fill:none;stroke:#000000;stroke-linecap:square;stroke-width:7.3154;"/>
   </g>
   <g id="line2d_41">
    <path clip-path="url(#p0c7d23bf9a)" d="M 267.129383 517.366604 
L 291.556712 559.675979 
" style="fill:none;stroke:#000000;stroke-linecap:square;stroke-width:7.3154;"/>
   </g>
   <g id="line2d_42">
    <path clip-path="url(#p0c7d23bf9a)" d="M 300.40781 575.006531 
L 291.556712 559.675979 
" style="fill:none;stroke:#000000;stroke-linecap:square;stroke-width:7.3154;"/>
   </g>
   <g id="text_1">
    <!-- $H_2N$ -->
    <g transform="translate(195.31281 383.802197)scale(0.426732 -0.426732)">
     <defs>
      <path d="M 628 4666 
L 1259 4666 
L 1259 2753 
L 3553 2753 
L 3553 4666 
L 4184 4666 
L 4184 0 
L 3553 0 
L 3553 2222 
L 1259 2222 
L 1259 0 
L 628 0 
L 628 4666 
z
" id="DejaVuSans-48" transform="scale(0.015625)"/>
      <path d="M 1228 531 
L 3431 531 
L 3431 0 
L 469 0 
L 469 531 
Q 828 903 1448 1529 
Q 2069 2156 2228 2338 
Q 2531 2678 2651 2914 
Q 2772 3150 2772 3378 
Q 2772 3750 2511 3984 
Q 2250 4219 1831 4219 
Q 1534 4219 1204 4116 
Q 875 4013 500 3803 
L 500 4441 
Q 881 4594 1212 4672 
Q 1544 4750 1819 4750 
Q 2544 4750 2975 4387 
Q 3406 4025 3406 3419 
Q 3406 3131 3298 2873 
Q 3191 2616 2906 2266 
Q 2828 2175 2409 1742 
Q 1991 1309 1228 531 
z
" id="DejaVuSans-32" transform="scale(0.015625)"/>
      <path d="M 628 4666 
L 1478 4666 
L 3547 763 
L 3547 4666 
L 4159 4666 
L 4159 0 
L 3309 0 
L 1241 3903 
L 1241 0 
L 628 0 
L 628 4666 
z
" id="DejaVuSans-4e" transform="scale(0.015625)"/>
     </defs>
     <use transform="translate(0 0.09375)" xlink:href="#DejaVuSans-48"/>
     <use transform="translate(76.152344 -16.3125)scale(0.7)" xlink:href="#DejaVuSans-32"/>
     <use transform="translate(123.422852 0.09375)" xlink:href="#DejaVuSans-4e"/>
    </g>
   </g>
   <g id="text_2">
    <!-- NH -->
    <g transform="translate(528.278571 287.973472)scale(0.426732 -0.426732)">
     <use xlink:href="#DejaVuSans-4e"/>
     <use x="74.804688" xlink:href="#DejaVuSans-48"/>
    </g>
   </g>
   <g id="text_3">
    <!-- HO -->
    <g transform="translate(126.03809 537.107719)scale(0.426732 -0.426732)">
     <defs>
      <path d="M 2522 4238 
Q 1834 4238 1429 3725 
Q 1025 3213 1025 2328 
Q 1025 1447 1429 934 
Q 1834 422 2522 422 
Q 3209 422 3611 934 
Q 4013 1447 4013 2328 
Q 4013 3213 3611 3725 
Q 3209 4238 2522 4238 
z
M 2522 4750 
Q 3503 4750 4090 4092 
Q 4678 3434 4678 2328 
Q 4678 1225 4090 567 
Q 3503 -91 2522 -91 
Q 1538 -91 948 565 
Q 359 1222 359 2328 
Q 359 3434 948 4092 
Q 1538 4750 2522 4750 
z
" id="DejaVuSans-4f" transform="scale(0.015625)"/>
     </defs>
     <use xlink:href="#DejaVuSans-48"/>
     <use x="75.195312" xlink:href="#DejaVuSans-4f"/>
    </g>
   </g>
   <g id="text_4">
    <!-- O -->
    <g transform="translate(289.989817 613.760481)scale(0.426732 -0.426732)">
     <use xlink:href="#DejaVuSans-4f"/>
    </g>
   </g>
  </g>
 </g>
 <defs>
  <clipPath id="p0c7d23bf9a">
   <rect height="720" width="607.990828" x="56.004586" y="0"/>
  </clipPath>
 </defs>
</svg>
